<?xml version="1.0" encoding="UTF-8"?>
<svg version="1.1" xmlns="http://www.w3.org/2000/svg" width="48" height="48">
<path d="M0 0 C15.84 0 31.68 0 48 0 C48 15.84 48 31.68 48 48 C32.16 48 16.32 48 0 48 C0 32.16 0 16.32 0 0 Z " fill="#16203A" transform="translate(0,0)"/>
<path d="M0 0 C3.9204258 1.83387901 5.81877263 4.66774983 7.875 8.4375 C8.96124128 11.87726404 9.26156021 14.42534379 9 18 C8.34 18 7.68 18 7 18 C6.896875 16.96875 6.79375 15.9375 6.6875 14.875 C5.80572305 9.90498444 4.69287223 6.41072685 0.75 3.125 C-2.64173716 1.73747116 -5.36981504 1.78645971 -9 2 C-9 2.66 -9 3.32 -9 4 C-8.13375 3.9175 -7.2675 3.835 -6.375 3.75 C-2.15907051 4.06229107 -0.21628157 5.30729915 3 8 C3.9375 10.1875 3.9375 10.1875 4 12 C3.67 12.33 3.34 12.66 3 13 C3.66 13.33 4.32 13.66 5 14 C4.66290194 20.51722911 3.55774263 23.32539218 -1 28 C-0.21625 27.505 0.5675 27.01 1.375 26.5 C4 25 4 25 6 25 C5.01 27.475 5.01 27.475 4 30 C3.34 30 2.68 30 2 30 C2 30.66 2 31.32 2 32 C-1.76543089 32.88598374 -5.14371324 33.47219838 -9 33 C-13.67442342 29.94364622 -15.73348225 27.44602633 -17 22 C-16.34 21.67 -15.68 21.34 -15 21 C-13.88750714 16.39450283 -13.88750714 16.39450283 -15 12 C-15.66 13.65 -16.32 15.3 -17 17 C-17.33 17 -17.66 17 -18 17 C-18.42034404 10.90501137 -18.07814737 7.87112047 -14 3 C-9.66417825 -0.86533896 -5.58845705 -0.92699524 0 0 Z " fill="#1C2339" transform="translate(29,8)"/>
<path d="M0 0 C3.9204258 1.83387901 5.81877263 4.66774983 7.875 8.4375 C8.96124128 11.87726404 9.26156021 14.42534379 9 18 C8.34 18 7.68 18 7 18 C6.896875 16.96875 6.79375 15.9375 6.6875 14.875 C5.80572305 9.90498444 4.69287223 6.41072685 0.75 3.125 C-2.64173716 1.73747116 -5.36981504 1.78645971 -9 2 C-9 2.66 -9 3.32 -9 4 C-8.34 4.33 -7.68 4.66 -7 5 C-7.639375 5.433125 -8.27875 5.86625 -8.9375 6.3125 C-11.26746003 7.91239177 -11.26746003 7.91239177 -12 11 C-10.68 11 -9.36 11 -8 11 C-7.67 9.35 -7.34 7.7 -7 6 C-6.01 6 -5.02 6 -4 6 C-4 8.31 -4 10.62 -4 13 C-6.01822917 12.96744792 -8.03645833 12.93489583 -10.0546875 12.90234375 C-12.08185404 12.87350758 -12.08185404 12.87350758 -14 14 C-14.33 13.34 -14.66 12.68 -15 12 C-15.66 13.65 -16.32 15.3 -17 17 C-17.33 17 -17.66 17 -18 17 C-18.42034404 10.90501137 -18.07814737 7.87112047 -14 3 C-9.66417825 -0.86533896 -5.58845705 -0.92699524 0 0 Z " fill="#453C3D" transform="translate(29,8)"/>
<path d="M0 0 C3.78573173 1.2361573 5.54078032 2.95910274 8.0625 6 C8.0625 6.66 8.0625 7.32 8.0625 8 C7.7325 8.33 7.4025 8.66 7.0625 9 C7.7225 9.33 8.3825 9.66 9.0625 10 C8.32336957 18.86956522 8.32336957 18.86956522 5.0625 22 C4.4025 22 3.7425 22 3.0625 22 C2.89429449 20.06263299 2.72798905 18.12510094 2.5625 16.1875 C2.4696875 15.10855469 2.376875 14.02960937 2.28125 12.91796875 C2.0625 10 2.0625 10 2.0625 7 C1.0725 7 0.0825 7 -0.9375 7 C-0.6075 5.35 -0.2775 3.7 0.0625 2 C-0.9275 2.33 -1.9175 2.66 -2.9375 3 C-3.67073796 5.01508358 -3.67073796 5.01508358 -3.9375 7 C-5.2575 7 -6.5775 7 -7.9375 7 C-7.57430051 4.3668037 -7.08244976 3.15568678 -5.25 1.1875 C-2.9375 0 -2.9375 0 0 0 Z " fill="#C08A49" transform="translate(24.9375,12)"/>
<path d="M0 0 C3.25696479 0.41755959 4.63443291 0.63443291 7 3 C7.39764263 4.98821313 7.73775349 6.98944339 8 9 C8.66 9 9.32 9 10 9 C10 10.65 10 12.3 10 14 C6.29258749 13.74722187 4.46290515 13.4253723 1.6875 10.875 C-0.28893431 7.50774154 -0.77629669 4.87752401 -1 1 C-0.67 0.67 -0.34 0.34 0 0 Z " fill="#E6A14E" transform="translate(16,22)"/>
<path d="M0 0 C1 3 1 3 0.5 5.0625 C-0.24512953 9.44013598 0.44707934 13.61916706 1 18 C0.01 18.33 -0.98 18.66 -2 19 C-2 17.35 -2 15.7 -2 14 C-2.66 14 -3.32 14 -4 14 C-4.33 14.66 -4.66 15.32 -5 16 C-5.1953125 13.98177083 -5.390625 11.96354167 -5.5859375 9.9453125 C-5.86374749 7.77331755 -5.86374749 7.77331755 -8 6 C-9.31747324 5.30251417 -10.64914193 4.63040043 -12 4 C-11.67 3.67 -11.34 3.34 -11 3 C-9.72125 3.04125 -8.4425 3.0825 -7.125 3.125 C-3.80205885 3.22445211 -3.80205885 3.22445211 -1 1.5 C-0.67 1.005 -0.34 0.51 0 0 Z " fill="#2E2E3B" transform="translate(28,17)"/>
<path d="M0 0 C3.9204258 1.83387901 5.81877263 4.66774983 7.875 8.4375 C8.96124128 11.87726404 9.26156021 14.42534379 9 18 C8.34 18 7.68 18 7 18 C6.896875 16.96875 6.79375 15.9375 6.6875 14.875 C5.80089896 9.87779415 4.65090454 6.42161224 0.75 3.0625 C-2.98263374 1.62034606 -5.14678944 1.98599722 -9 3 C-11.17864864 4.18487908 -13.01146282 5.49647189 -15 7 C-14.63565521 4.35850028 -14.2472629 3.22785886 -12.2578125 1.39453125 C-8.35761306 -1.01441546 -4.42723052 -0.73437473 0 0 Z " fill="#775C42" transform="translate(29,8)"/>
<path d="M0 0 C3.80495992 2.24838541 4.83485722 3.52816349 6.3125 7.75 C6.539375 8.8225 6.76625 9.895 7 11 C5.35 11.33 3.7 11.66 2 12 C2 11.34 2 10.68 2 10 C2.66 10 3.32 10 4 10 C2.53848071 6.14690368 0.68722565 4.75981224 -3 3 C-6.19395026 2.28598768 -6.19395026 2.28598768 -9 2 C-9 1.34 -9 0.68 -9 0 C-5.39965901 -1.20011366 -3.65462165 -0.95020163 0 0 Z " fill="#302F3B" transform="translate(29,10)"/>
<path d="M0 0 C0.33 0.66 0.66 1.32 1 2 C-0.4375 4.625 -0.4375 4.625 -2 7 C-2.66 6.67 -3.32 6.34 -4 6 C-3.67 4.35 -3.34 2.7 -3 1 C-3.99 1.33 -4.98 1.66 -6 2 C-6.73323796 4.01508358 -6.73323796 4.01508358 -7 6 C-8.32 6 -9.64 6 -11 6 C-10.63680051 3.3668037 -10.14494976 2.15568678 -8.3125 0.1875 C-5.16827607 -1.42710148 -3.33691324 -0.96399716 0 0 Z " fill="#DF9D4D" transform="translate(28,13)"/>
<path d="M0 0 C0.99 0 1.98 0 3 0 C3.36637589 6.35051546 3.36637589 6.35051546 1.625 9.4375 C0 11 0 11 -2 11 C-2 8.03 -2 5.06 -2 2 C-1.01 2.33 -0.02 2.66 1 3 C0.67 2.01 0.34 1.02 0 0 Z " fill="#E8A24E" transform="translate(30,23)"/>
<path d="M0 0 C1.4606285 2.64738916 2 3.89448334 2 7 C3.98075027 8.36176581 5.98079663 9.69593116 8 11 C8 11.66 8 12.32 8 13 C4.0945257 12.42141121 1.80399897 10.73020952 -1 8 C-2.3125 4.75 -2.3125 4.75 -3 2 C-2.01 1.34 -1.02 0.68 0 0 Z " fill="#614E40" transform="translate(15,28)"/>
<path d="M0 0 C0.99 0 1.98 0 3 0 C3 2.31 3 4.62 3 7 C0.98177083 6.96744792 -1.03645833 6.93489583 -3.0546875 6.90234375 C-5.08185404 6.87350758 -5.08185404 6.87350758 -7 8 C-6.67 6.35 -6.34 4.7 -6 3 C-5.67 3.66 -5.34 4.32 -5 5 C-3.68 5 -2.36 5 -1 5 C-0.67 3.35 -0.34 1.7 0 0 Z " fill="#795D42" transform="translate(22,14)"/>
<path d="M0 0 C-0.66 1.65 -1.32 3.3 -2 5 C-2.66 5 -3.32 5 -4 5 C-4 5.66 -4 6.32 -4 7 C-5.98 7.33 -7.96 7.66 -10 8 C-10 7.34 -10 6.68 -10 6 C-9.360625 5.896875 -8.72125 5.79375 -8.0625 5.6875 C-7.381875 5.460625 -6.70125 5.23375 -6 5 C-5.67 4.01 -5.34 3.02 -5 2 C-2 0 -2 0 0 0 Z " fill="#54463E" transform="translate(35,33)"/>
<path d="M0 0 C0.33 0.99 0.66 1.98 1 3 C-2.3 2.67 -5.6 2.34 -9 2 C-9 1.34 -9 0.68 -9 0 C-5.52176885 -1.15941038 -3.54104422 -0.70820884 0 0 Z " fill="#1F2539" transform="translate(29,10)"/>
<path d="M0 0 C3.465 1.98 3.465 1.98 7 4 C6.67 4.99 6.34 5.98 6 7 C3.53199953 5.84826645 1.95216435 4.95216435 0 3 C0 2.01 0 1.02 0 0 Z " fill="#282A3A" transform="translate(15,31)"/>
</svg>
