<?xml version="1.0" standalone="no"?>
<!DOCTYPE svg PUBLIC "-//W3C//DTD SVG 20010904//EN"
 "http://www.w3.org/TR/2001/REC-SVG-20010904/DTD/svg10.dtd">
<svg version="1.0" xmlns="http://www.w3.org/2000/svg"
 width="300.000000pt" height="239.000000pt" viewBox="0 0 300.000000 239.000000"
 preserveAspectRatio="xMidYMid meet">
<metadata>
Created by potrace 1.10, written by Peter Selinger 2001-2011
</metadata>
<g transform="translate(0.000000,239.000000) scale(0.100000,-0.100000)"
fill="#000000" stroke="none">
<path d="M10 1190 c0 -787 3 -1190 10 -1190 6 0 10 44 10 113 0 61 0 587 0
1168 0 838 2 1059 12 1067 9 7 446 10 1388 11 1699 0 1570 -1 1570 11 0 7
-505 10 -1495 10 l-1495 0 0 -1190z"/>
<path d="M1400 2039 c-30 -3 -80 -15 -110 -27 -30 -12 -64 -22 -76 -22 -11 0
-30 -9 -41 -19 -12 -11 -23 -17 -26 -14 -7 6 -120 -48 -125 -60 -2 -4 -8 -5
-12 -2 -5 3 -19 -8 -31 -25 -13 -16 -29 -30 -36 -30 -7 0 -13 -7 -13 -16 0 -8
-4 -13 -8 -10 -5 3 -19 -6 -30 -19 -12 -14 -19 -25 -16 -25 4 0 -5 -12 -20
-26 -14 -15 -26 -35 -26 -45 0 -10 -7 -24 -16 -31 -43 -35 -74 -70 -74 -85 0
-8 -13 -43 -29 -77 -34 -70 -58 -171 -65 -271 -3 -39 -10 -71 -15 -73 -5 -2 4
-17 19 -34 25 -27 33 -30 67 -24 21 3 44 7 51 8 7 1 12 17 13 37 5 170 8 196
18 199 6 2 11 10 11 18 0 25 38 123 59 153 12 16 21 36 21 45 0 19 159 186
176 186 7 0 27 16 45 35 19 19 43 35 55 35 12 0 27 7 34 15 7 8 17 15 23 15 6
0 29 9 51 19 50 23 108 32 248 35 67 2 105 0 102 -6 -4 -6 4 -5 16 2 14 8 25
8 29 2 3 -5 21 -13 39 -17 17 -3 32 -11 32 -16 0 -5 11 -9 25 -9 14 0 42 -10
63 -23 20 -13 52 -29 69 -36 18 -7 31 -17 28 -21 -3 -4 10 -14 27 -21 39 -16
114 -92 135 -136 8 -18 20 -33 27 -33 15 -1 58 -88 50 -102 -4 -6 -3 -8 3 -5
11 7 37 -43 48 -93 4 -19 10 -39 14 -45 3 -5 7 -23 8 -40 7 -111 14 -178 19
-186 3 -5 13 -9 23 -9 9 0 22 -5 28 -11 8 -8 13 -8 17 0 4 6 16 11 26 11 24 0
33 29 31 97 -1 36 3 53 12 53 9 0 8 3 -2 9 -7 5 -16 30 -19 57 -3 26 -11 58
-18 72 -7 13 -11 33 -9 42 2 10 -3 21 -11 24 -8 3 -14 14 -14 25 0 11 -5 23
-10 26 -6 4 -8 10 -5 15 9 14 -76 155 -107 178 -10 7 -18 18 -18 23 0 6 -9 22
-20 36 -11 14 -20 23 -20 19 0 -4 -13 6 -28 21 -60 59 -116 104 -146 117 -31
13 -104 46 -161 71 -29 13 -68 23 -110 29 -11 1 -27 6 -35 9 -20 9 -192 13
-260 6z m84 -46 c17 -49 26 -50 26 -5 0 23 5 42 10 42 6 0 10 -17 10 -39 0
-30 4 -38 16 -37 9 0 19 -5 21 -11 3 -9 -9 -13 -41 -13 -25 0 -46 5 -46 10 0
6 -7 10 -15 10 -8 0 -15 -4 -15 -8 0 -5 -24 -13 -54 -19 -49 -8 -55 -8 -59 9
-4 12 -11 16 -21 12 -11 -4 -14 -13 -11 -25 4 -13 1 -19 -8 -19 -8 0 -17 12
-20 28 -3 15 -9 35 -12 45 -5 12 -2 17 9 17 9 0 16 -7 16 -15 0 -17 2 -17 23
-9 9 3 13 13 10 25 -3 10 0 19 6 19 6 0 13 -12 17 -27 9 -44 14 -56 20 -50 3
3 1 21 -4 41 -10 33 -9 36 13 42 27 7 48 -3 39 -17 -3 -5 -9 -7 -14 -4 -5 3
-11 1 -15 -5 -3 -6 4 -10 17 -10 22 -1 22 -1 4 -15 -19 -15 -19 -15 2 -15 12
0 22 6 22 14 0 28 20 68 32 64 6 -2 16 -18 22 -35z m141 25 c26 -1 35 -6 35
-19 0 -9 7 -19 15 -23 10 -4 15 1 15 14 0 20 14 27 24 12 7 -11 -15 -92 -25
-92 -4 0 -9 10 -11 22 -4 28 -28 36 -28 9 0 -12 -6 -21 -15 -21 -12 0 -14 8
-9 40 8 50 -11 55 -20 5 -9 -45 -26 -45 -26 -1 0 19 -5 36 -12 38 -6 2 -8 10
-4 16 4 7 11 10 16 7 5 -3 25 -6 45 -7z m169 -44 c20 -20 20 -34 1 -34 -8 0
-15 5 -15 10 0 6 -9 10 -20 10 -13 0 -20 -7 -20 -20 0 -15 7 -20 25 -20 14 0
25 -6 25 -12 1 -7 13 1 28 19 35 41 58 31 49 -21 -7 -44 7 -48 22 -6 11 33 18
36 44 16 18 -14 24 -56 8 -56 -5 0 -11 -7 -15 -15 -10 -26 11 -16 31 15 18 28
20 29 41 14 29 -20 29 -37 0 -28 -19 6 -21 5 -11 -8 16 -18 5 -32 -14 -17 -9
9 -13 8 -13 0 0 -6 5 -11 10 -11 6 0 10 -7 10 -15 0 -20 -4 -19 -45 8 -20 12
-35 30 -35 42 0 14 -3 16 -11 8 -14 -14 -49 -5 -49 13 0 8 -3 14 -7 15 -94 7
-113 17 -113 60 0 43 44 63 74 33z m-544 -47 c7 -21 9 -41 5 -45 -4 -4 -10 -1
-12 6 -4 10 -8 9 -17 -3 -6 -9 -30 -25 -53 -35 l-42 -19 -20 35 c-12 19 -21
39 -21 43 0 13 49 31 55 21 4 -6 -1 -13 -9 -16 -23 -9 -20 -23 4 -17 11 3 20
0 20 -6 0 -6 -4 -11 -10 -11 -5 0 -10 -5 -10 -11 0 -5 14 -2 31 8 29 17 31 25
15 63 -4 10 2 19 16 26 28 13 32 9 48 -39z m-158 -54 c29 -26 22 -47 -30 -90
l-48 -41 -32 39 c-31 36 -31 39 -13 48 11 6 25 17 33 24 16 17 50 36 62 37 5
0 18 -7 28 -17z m998 -75 c0 -12 -18 -19 -25 -8 -3 5 -11 10 -17 10 -6 0 -6
-6 2 -15 7 -9 21 -13 31 -10 47 15 77 -39 42 -77 -31 -35 -73 -16 -73 33 0 32
-16 47 -33 30 -6 -6 -15 -11 -19 -11 -16 0 -8 23 20 54 26 31 28 32 49 17 12
-9 23 -19 23 -23z m-1116 -24 c9 -8 16 -23 16 -32 -1 -23 -45 -72 -65 -72 -9
0 -15 -9 -15 -25 0 -35 -13 -31 -43 13 -34 51 -23 69 28 48 51 -22 53 -20 20
14 -28 29 -28 30 -10 50 22 24 48 26 69 4z m1206 -73 c0 -4 -11 -14 -25 -21
-14 -7 -25 -19 -25 -27 0 -18 7 -17 40 7 l28 20 16 -25 c13 -19 14 -30 6 -45
-10 -19 -9 -20 14 -14 38 9 31 -10 -10 -30 -20 -9 -34 -19 -31 -22 3 -3 19 2
37 11 18 9 33 15 35 13 31 -37 23 -81 -16 -93 -40 -13 -91 63 -69 104 11 21
-3 31 -15 11 -7 -11 -25 -4 -25 9 0 4 16 15 36 25 20 9 34 20 31 23 -4 3 -18
-2 -31 -11 -33 -21 -53 -20 -66 3 -8 17 -5 25 22 50 29 27 48 32 48 12z
m-1317 -93 c18 -28 -19 -95 -57 -104 -29 -6 -30 -7 -8 -15 12 -5 22 -13 22
-20 0 -6 -3 -9 -7 -7 -5 2 -25 10 -45 18 -45 17 -50 40 -10 40 26 1 26 1 8 15
-29 22 -14 27 30 10 36 -14 37 -14 19 0 -11 9 -27 20 -35 25 -12 7 -12 13 -2
35 10 22 18 26 44 23 17 -2 36 -10 41 -20z m-79 -154 c9 -8 16 -22 16 -29 0
-19 -28 -45 -47 -45 -22 0 -53 29 -53 50 0 38 54 54 84 24z m1536 -6 c0 -18
-68 -70 -81 -63 -7 5 -6 11 1 20 8 10 6 18 -11 34 l-23 21 57 0 c39 0 57 -4
57 -12z m23 -87 c5 -24 7 -44 5 -46 -9 -9 -84 -9 -88 0 -3 6 12 11 32 13 26 2
35 7 32 17 -4 10 -13 11 -36 4 -32 -9 -52 -4 -43 10 2 5 18 11 35 14 18 4 30
13 30 23 0 32 25 6 33 -35z m-1600 13 c22 -4 37 -12 37 -20 0 -11 -8 -13 -27
-8 -27 6 -27 6 -8 -9 18 -15 18 -16 3 -17 -25 0 -23 -20 2 -20 11 0 20 -5 20
-11 0 -8 -11 -9 -31 -5 -17 3 -40 6 -50 6 -29 0 -23 27 7 34 l27 7 -22 15
c-23 17 -28 34 -8 34 6 0 29 -3 50 -6z m1605 -86 c26 -26 1 -78 -38 -78 -22 0
-50 25 -50 45 0 36 62 59 88 33z m-1610 -24 c19 -13 22 -24 22 -75 l0 -59 -49
0 -49 0 0 56 c1 42 6 62 19 75 23 23 28 23 57 3z m1625 -80 c-3 -8 -11 -14
-18 -14 -8 0 -17 -5 -21 -12 -5 -8 0 -9 14 -6 15 4 22 2 22 -8 0 -10 -13 -14
-45 -14 -49 0 -63 22 -22 35 l22 8 -22 4 c-13 2 -23 10 -23 16 0 8 16 11 49 9
38 -3 48 -7 44 -18z"/>
<path d="M1040 1851 c0 -5 7 -14 15 -21 18 -15 42 1 31 19 -8 13 -46 15 -46 2z"/>
<path d="M1002 1828 c-17 -17 -15 -33 2 -19 10 8 16 9 21 1 3 -5 1 -10 -4 -10
-6 0 -11 -4 -11 -10 0 -16 20 -12 27 6 8 22 -19 48 -35 32z"/>
<path d="M2075 1740 c-4 -7 -3 -16 3 -22 14 -14 45 -2 40 15 -6 16 -34 21 -43
7z"/>
<path d="M929 1759 c-12 -7 -11 -11 3 -25 17 -17 38 -12 38 11 0 17 -23 25
-41 14z"/>
<path d="M2227 1529 c-21 -12 -13 -29 14 -29 12 0 19 7 19 20 0 22 -7 24 -33
9z"/>
<path d="M804 1598 c-4 -6 1 -17 11 -25 21 -15 37 -1 28 24 -6 16 -29 17 -39
1z"/>
<path d="M733 1434 c-7 -18 11 -39 26 -30 17 11 13 46 -4 46 -9 0 -18 -7 -22
-16z"/>
<path d="M2293 1264 c-7 -18 11 -39 26 -30 17 11 13 46 -4 46 -9 0 -18 -7 -22
-16z"/>
<path d="M690 1236 c0 -16 37 -28 46 -15 8 14 -5 29 -27 29 -10 0 -19 -6 -19
-14z"/>
<path d="M688 1168 c5 -19 7 -20 10 -5 4 21 22 23 22 1 0 -8 5 -12 10 -9 22
13 10 35 -19 35 -25 0 -28 -3 -23 -22z"/>
<path d="M1405 1800 c-64 -18 -121 -32 -132 -33 -7 0 -9 -5 -6 -10 3 -5 0 -8
-7 -5 -8 2 -22 -4 -32 -14 -10 -10 -23 -16 -27 -13 -5 2 -29 -14 -54 -38 -26
-23 -52 -47 -59 -53 -53 -46 -145 -184 -131 -198 4 -3 1 -6 -5 -6 -6 0 -14
-17 -18 -37 -4 -21 -11 -43 -16 -50 -6 -7 -6 -31 0 -62 6 -35 6 -51 -2 -54
-21 -7 -9 -159 20 -246 14 -44 30 -78 35 -75 5 3 9 -3 9 -12 0 -21 38 -73 105
-141 52 -54 192 -146 206 -137 5 3 9 0 9 -5 0 -6 10 -11 23 -11 12 0 42 -6 67
-14 27 -8 82 -13 137 -11 137 3 164 29 135 125 -8 25 -15 55 -17 66 -4 29 -24
65 -48 89 -15 14 -33 19 -64 17 l-43 -2 -1 53 c-1 58 -3 77 -13 127 -9 42 -55
140 -67 140 -4 0 -10 8 -13 18 -9 26 -124 100 -186 118 -33 10 -74 14 -105 11
-27 -2 -44 -2 -37 0 6 3 10 9 7 13 -3 5 19 16 49 25 59 17 127 14 180 -9 17
-7 49 -18 71 -24 22 -6 51 -14 65 -18 95 -26 175 11 296 136 31 32 44 40 44
28 0 -22 -31 -88 -42 -88 -4 0 -8 -9 -8 -20 0 -11 -7 -23 -15 -26 -8 -4 -13
-10 -10 -14 3 -5 1 -11 -5 -15 -27 -17 -56 -120 -40 -141 7 -7 9 -17 6 -23 -3
-5 -2 -11 4 -13 33 -11 53 -282 30 -409 -16 -88 -11 -115 21 -117 15 -1 49 8
75 20 27 11 52 21 55 20 15 -3 177 168 202 212 56 101 80 192 81 306 1 60 -5
126 -13 155 -17 66 -63 175 -73 175 -5 0 -8 7 -8 15 0 8 -4 15 -10 15 -5 0
-10 7 -10 15 0 8 -4 15 -8 15 -5 0 -14 10 -21 23 -14 24 -95 92 -111 92 -6 0
-15 7 -20 15 -5 8 -10 11 -10 7 0 -4 -14 5 -32 22 -17 16 -52 35 -77 41 -25 6
-57 16 -71 22 -32 13 -226 19 -265 8z m264 -40 c40 -11 95 -32 122 -46 l50
-25 -43 -80 c-52 -98 -133 -190 -202 -229 -69 -40 -128 -40 -244 0 -116 41
-184 48 -252 25 -58 -19 -132 -84 -151 -132 -19 -47 -21 -9 -4 59 38 147 158
304 285 373 136 73 299 94 439 55z m319 -215 c181 -243 154 -571 -63 -779 -50
-49 -200 -144 -211 -134 -2 3 3 36 12 74 35 144 18 364 -34 473 l-19 39 39 69
c90 153 125 238 143 346 l6 38 41 -33 c23 -17 61 -59 86 -93z m-731 -269 c140
-70 203 -184 203 -366 0 -41 -5 -102 -11 -135 -21 -124 -21 -135 0 -79 56 151
107 194 145 122 16 -33 59 -199 52 -205 -2 -2 -41 -6 -87 -9 -239 -16 -466
115 -567 327 -41 87 -62 162 -62 227 0 31 7 45 43 79 23 23 58 49 77 58 51 22
142 14 207 -19z"/>
<path d="M1396 1661 c-39 -26 -55 -57 -56 -108 -1 -108 138 -156 213 -73 48
54 31 152 -33 185 -40 20 -89 19 -124 -4z m113 -32 c66 -62 37 -159 -49 -159
-53 0 -95 47 -86 98 11 70 88 105 135 61z"/>
<path d="M1938 1403 c-3 -32 -7 -38 -28 -41 -50 -6 -56 -14 -20 -27 34 -12 35
-14 32 -56 l-3 -44 33 33 c32 30 35 31 57 16 29 -21 37 -12 21 26 -12 28 -11
33 11 57 l24 25 -41 -6 c-39 -7 -42 -6 -54 23 -17 41 -28 39 -32 -6z"/>
<path d="M1840 1198 c0 -21 -5 -28 -20 -28 -26 0 -26 -16 -1 -23 14 -3 18 -11
14 -26 -7 -26 5 -27 23 -3 10 14 15 15 25 5 20 -20 31 -15 18 8 -8 15 -8 24 0
32 17 17 13 30 -6 23 -11 -5 -23 1 -35 16 l-18 23 0 -27z"/>
<path d="M769 922 c-15 -15 -29 -32 -33 -39 -9 -17 41 -113 59 -113 10 0 15
-11 15 -32 1 -28 29 -99 30 -74 0 5 7 3 15 -4 8 -7 12 -16 9 -21 -3 -5 -1 -9
4 -9 5 0 14 -11 20 -24 6 -13 20 -27 31 -31 12 -3 21 -12 21 -20 0 -7 16 -23
36 -36 20 -12 48 -33 63 -47 27 -25 63 -43 94 -47 10 -1 25 -11 33 -23 11 -16
26 -22 51 -22 23 0 45 -9 64 -24 25 -21 32 -23 58 -13 24 9 34 8 48 -4 22 -19
51 -18 81 1 17 12 22 24 22 60 -1 56 -32 85 -80 75 -20 -4 -37 -1 -52 9 -12 9
-34 16 -48 16 -14 0 -42 11 -61 25 -20 13 -39 21 -43 18 -3 -3 -14 1 -23 9
-10 9 -37 25 -60 37 -35 17 -43 19 -43 7 0 -8 -4 -17 -9 -20 -5 -4 -7 7 -5 22
6 35 -16 56 -51 50 -27 -6 -30 -1 -16 21 10 16 -27 81 -66 116 -12 11 -24 33
-27 49 -3 16 -10 34 -16 40 -5 5 -10 17 -10 26 0 24 -32 50 -61 49 -13 0 -36
-12 -50 -27z m61 -23 l-25 -21 28 5 c38 6 46 -17 16 -43 l-24 -20 31 6 c19 4
34 1 38 -5 8 -13 -2 -17 -66 -26 -40 -5 -48 -3 -48 9 0 9 9 21 20 28 29 18 25
26 -12 24 -44 -2 -42 16 7 53 27 20 43 26 50 20 7 -7 2 -17 -15 -30z m104
-144 c20 -30 20 -35 1 -35 -7 0 -19 8 -25 18 -9 14 -10 12 -5 -10 5 -27 -7
-38 -20 -18 -3 6 -10 10 -16 10 -5 0 -4 -9 3 -20 19 -29 -1 -38 -22 -10 -26
34 -26 35 17 65 46 31 47 31 67 0z m50 -62 c4 -4 -8 -20 -26 -35 -32 -26 -33
-27 -13 -42 19 -13 19 -15 2 -21 -11 -5 -23 0 -37 16 l-19 24 32 31 c33 33 48
39 61 27z m46 -103 c-18 -25 -20 -33 -9 -46 23 -28 -5 -37 -30 -10 l-24 25 33
41 c22 27 36 38 43 31 6 -6 2 -20 -13 -41z m100 -54 c1 -30 1 -30 13 -9 8 14
17 19 25 14 10 -6 7 -18 -15 -54 -32 -52 -48 -55 -48 -9 0 36 -8 41 -21 12 -6
-13 -13 -17 -22 -11 -10 6 -7 18 15 53 31 51 53 52 53 4z m140 -54 c0 -10 -8
-12 -27 -8 -25 6 -26 5 -10 -7 23 -19 22 -31 -3 -24 -24 6 -26 -2 -3 -18 28
-21 6 -37 -28 -20 -16 9 -29 17 -29 19 0 2 9 24 20 49 20 44 21 45 50 34 17
-6 30 -18 30 -25z m78 -14 c18 -18 14 -31 -8 -25 -26 7 -25 0 1 -21 27 -23 16
-52 -21 -52 -28 0 -59 25 -46 37 4 4 15 2 25 -4 26 -16 36 -3 11 14 -11 8 -20
20 -20 27 0 15 20 36 35 36 6 0 16 -5 23 -12z m120 -38 c3 -9 -3 -11 -24 -6
l-29 7 29 -24 c37 -30 30 -57 -13 -57 -32 0 -47 13 -35 31 4 8 9 8 17 0 13
-13 27 -14 27 -2 0 5 -9 13 -20 16 -22 7 -28 51 -7 58 17 6 50 -7 55 -23z"/>
<path d="M2243 905 c-9 -9 -9 -16 -2 -20 7 -5 6 -12 -4 -23 -8 -10 -23 -36
-33 -59 -18 -40 -20 -41 -61 -38 -24 2 -43 0 -43 -3 0 -4 15 -17 32 -29 28
-19 34 -21 41 -8 7 14 37 22 37 10 0 -3 -10 -19 -21 -35 l-22 -28 -41 30 c-25
18 -40 36 -38 46 3 13 1 14 -12 3 -11 -9 -13 -19 -6 -37 9 -22 7 -24 -13 -19
-26 6 -40 -2 -56 -32 -6 -13 -16 -23 -22 -23 -5 0 -19 -9 -30 -19 -16 -14 -19
-25 -13 -43 4 -12 7 -29 5 -36 -1 -8 9 -25 23 -39 l25 -25 46 28 c25 16 48 39
51 51 4 13 10 21 14 18 11 -7 106 104 115 135 4 14 13 32 19 40 23 29 50 89
43 96 -4 4 0 15 9 25 9 10 14 25 11 34 -8 19 -38 19 -54 0z m25 -72 c2 -8 -5
-13 -17 -13 -12 0 -21 6 -21 16 0 18 31 15 38 -3z m-28 -53 c0 -5 -5 -12 -11
-16 -14 -8 -33 11 -25 25 7 11 36 4 36 -9z m-170 -125 c21 -23 25 -24 41 -9
25 22 34 0 12 -31 -10 -13 -20 -24 -23 -24 -13 -1 -80 71 -75 79 10 15 20 12
45 -15z m-4 -100 c-1 -5 -14 -10 -27 -10 -17 0 -25 -6 -27 -22 -6 -39 -27 -25
-44 26 -21 67 -9 77 53 43 27 -15 47 -31 45 -37z"/>
<path d="M1815 543 c-11 -3 -28 -14 -38 -24 -10 -10 -30 -19 -45 -19 -42 0
-72 -11 -65 -23 4 -6 0 -8 -11 -4 -11 5 -15 3 -10 -5 5 -8 2 -9 -12 -3 -57 24
-104 5 -104 -43 0 -36 27 -92 45 -92 24 0 56 20 50 31 -4 5 5 9 19 9 14 0 28
-4 31 -10 3 -5 22 -10 42 -10 26 0 42 8 63 29 19 21 30 27 38 19 15 -15 89 20
96 45 5 19 -27 86 -48 99 -12 8 -20 8 -51 1z m57 -35 c0 -7 2 -18 2 -24 1 -6
7 -19 15 -28 18 -22 5 -34 -19 -18 -26 16 -29 15 -23 -8 10 -39 -22 -20 -44
25 -20 41 -20 45 -5 55 24 14 72 12 74 -2z m-120 -45 c35 -32 13 -93 -34 -93
-27 0 -58 28 -58 52 0 23 34 58 57 58 9 0 25 -7 35 -17z m-122 -18 c0 -8 -9
-15 -20 -15 -11 0 -20 -5 -20 -11 0 -6 9 -8 20 -4 14 5 20 2 20 -9 0 -9 -8
-16 -20 -16 -14 0 -19 -6 -17 -21 3 -35 -20 -33 -27 2 -12 62 -8 77 22 82 15
2 30 5 35 6 4 0 7 -6 7 -14z"/>
<path d="M1694 436 c-8 -21 3 -36 27 -36 15 0 20 6 17 22 -4 27 -35 37 -44 14z"/>
</g>
</svg>
