<?xml version="1.0" standalone="no"?>
<!DOCTYPE svg PUBLIC "-//W3C//DTD SVG 20010904//EN"
 "http://www.w3.org/TR/2001/REC-SVG-20010904/DTD/svg10.dtd">
<svg version="1.0" xmlns="http://www.w3.org/2000/svg"
 width="300.000000pt" height="196.000000pt" viewBox="0 0 300.000000 196.000000"
 preserveAspectRatio="xMidYMid meet">
<metadata>
Created by potrace 1.10, written by Peter Selinger 2001-2011
</metadata>
<g transform="translate(0.000000,196.000000) scale(0.100000,-0.100000)"
fill="#000000" stroke="none">
<path d="M1493 1943 c20 -2 54 -2 75 0 20 2 3 4 -38 4 -41 0 -58 -2 -37 -4z"/>
<path d="M1145 1910 c-92 -23 -62 -24 40 0 44 10 69 18 55 18 -14 0 -56 -8
-95 -18z"/>
<path d="M1885 1894 c28 -7 55 -13 60 -13 17 2 -69 27 -90 27 -11 0 3 -6 30
-14z"/>
<path d="M1400 1879 c-87 -11 -202 -39 -198 -49 2 -4 34 -89 72 -188 l69 -180
31 9 c17 5 46 9 63 9 l33 0 0 205 c0 113 -1 204 -2 204 -2 -1 -32 -5 -68 -10z
m-5 -54 c3 -14 7 -36 10 -49 3 -15 0 -26 -10 -30 -19 -7 -23 1 -30 57 -6 39
-4 47 9 47 9 0 18 -11 21 -25z m-55 5 c0 -5 -6 -10 -12 -10 -10 0 -10 -2 0 -8
7 -5 15 -20 17 -33 3 -13 11 -57 18 -97 12 -63 12 -74 0 -79 -18 -7 -26 2 -30
30 -1 12 -8 52 -14 89 -6 36 -12 75 -13 85 -3 17 10 33 27 33 4 0 7 -4 7 -10z
m73 -114 c5 -12 3 -22 -5 -28 -19 -12 -28 -10 -28 6 0 8 -3 21 -6 29 -8 23 29
16 39 -7z m16 -88 c1 -11 -6 -18 -18 -18 -25 0 -36 58 -12 62 17 4 29 -15 30
-44z m11 -78 c0 -5 -16 -10 -35 -10 -19 0 -35 -4 -35 -10 0 -5 -4 -10 -10 -10
-5 0 -10 9 -10 20 0 17 7 20 45 20 25 0 45 -4 45 -10z m0 -29 c0 -5 -9 -12
-20 -15 -11 -3 -30 -9 -41 -12 -15 -4 -20 -2 -17 7 4 12 28 21 71 28 4 0 7 -3
7 -8z"/>
<path d="M1530 1683 l0 -200 48 -6 c26 -2 54 -8 63 -11 12 -5 29 29 85 175 38
101 70 185 72 189 4 9 -132 40 -205 47 l-63 6 0 -200z m172 147 c42 -12 51
-28 37 -70 -12 -33 -17 -35 -53 -19 -33 15 -52 1 -60 -46 -6 -31 -11 -35 -36
-35 l-30 0 0 79 c0 110 3 115 59 108 25 -4 62 -11 83 -17z m-5 -104 c4 -3 -33
-132 -40 -134 -4 -2 -5 -8 -1 -13 3 -5 -5 -9 -16 -9 -16 0 -20 4 -16 16 3 9
11 47 18 85 10 64 13 69 32 63 12 -4 22 -7 23 -8z m-95 -116 c-3 -30 -5 -32
-25 -24 -14 5 -16 16 -8 52 1 2 9 2 19 0 11 -3 16 -12 14 -28z m31 -76 c35
-10 16 -22 -33 -21 -41 2 -50 5 -50 20 0 19 18 19 83 1z"/>
<path d="M2035 1850 c95 -37 220 -97 293 -139 28 -17 52 -29 52 -26 0 20 -321
175 -395 190 -16 3 6 -8 50 -25z"/>
<path d="M889 1831 c-115 -45 -252 -122 -360 -202 -78 -58 -243 -209 -236
-216 2 -2 33 25 68 60 156 154 352 281 549 356 47 18 87 35 89 37 11 11 -22 0
-110 -35z"/>
<path d="M1840 1810 c0 -9 -49 -141 -119 -316 l-20 -52 59 -36 59 -36 44 47
c147 159 227 249 227 253 0 13 -223 150 -245 150 -3 0 -5 -5 -5 -10z m73 -50
c70 -34 139 -89 130 -104 -10 -18 -99 -112 -114 -121 -8 -6 -8 -2 0 14 9 15 9
26 1 42 -7 11 -14 18 -18 15 -3 -4 -1 -11 5 -17 9 -9 1 -26 -29 -65 -22 -30
-44 -54 -49 -54 -23 0 -16 26 22 81 31 45 37 60 23 54 -10 -4 -34 -9 -51 -10
-41 -4 -42 9 -9 91 12 32 26 67 29 77 8 21 8 21 60 -3z m-67 -195 c2 -5 -8
-23 -21 -40 -18 -22 -27 -27 -36 -18 -8 8 -7 19 7 42 18 30 44 38 50 16z m-62
-91 c9 -8 16 -19 16 -24 0 -5 7 -7 15 -4 17 7 18 3 9 -20 -10 -26 -29 -19 -47
17 -10 20 -16 26 -16 15 -1 -21 -17 -24 -24 -4 -5 13 10 36 24 36 4 0 15 -7
23 -16z"/>
<path d="M1075 1779 c-64 -33 -155 -96 -155 -108 0 -6 69 -85 207 -234 l54
-59 52 33 c28 18 53 34 55 34 5 4 -137 360 -145 362 -4 1 -35 -11 -68 -28z
m55 -52 c0 -4 7 -15 15 -23 13 -14 13 -17 0 -31 -18 -17 -17 -17 -34 15 -10
19 -10 27 1 40 11 15 11 15 -3 4 -14 -10 -18 -10 -23 4 -9 25 16 38 32 17 6
-9 12 -21 12 -26z m-45 -47 c-10 -15 -35 -12 -35 5 0 8 -4 15 -10 15 -14 0
-12 28 2 32 16 6 52 -38 43 -52z m-31 -45 c8 -17 27 -48 41 -69 21 -31 24 -41
13 -47 -7 -5 -15 -9 -18 -9 -5 1 -74 111 -75 120 0 3 -9 18 -19 33 -16 24 -17
30 -5 38 15 9 38 -14 63 -66z m75 -16 c17 -28 29 -55 25 -60 -7 -12 -34 -12
-34 1 0 6 -11 28 -25 51 -24 36 -26 59 -6 59 4 0 22 -23 40 -51z m55 -97 c-39
-42 -64 -49 -64 -18 0 17 47 49 60 41 18 -11 11 10 -19 56 -25 41 -27 47 -12
56 13 8 21 1 46 -40 l30 -50 -41 -45z m26 -43 l-25 -20 28 13 c23 10 30 9 37
-2 5 -8 6 -19 3 -24 -4 -6 -8 -5 -11 2 -6 18 -20 14 -18 -5 0 -12 -7 -19 -21
-21 -18 -3 -23 2 -23 18 0 12 -4 18 -10 15 -19 -12 -10 6 18 35 17 18 31 25
37 18 7 -6 1 -16 -15 -29z"/>
<path d="M810 1565 c-30 -37 -67 -85 -81 -109 l-27 -42 174 -87 c96 -48 176
-87 178 -87 9 0 85 109 78 112 -4 2 -63 64 -131 138 -68 74 -127 136 -131 138
-3 1 -30 -27 -60 -63z m81 -36 c24 -17 27 -24 19 -40 -13 -23 -35 -26 -26 -3
4 10 2 14 -6 11 -7 -2 -21 0 -31 5 -14 7 -15 13 -7 28 13 25 15 25 51 -1z m98
-65 c23 -26 41 -51 41 -55 0 -20 -56 -88 -72 -89 -19 0 -25 25 -8 35 19 11 10
41 -20 70 -29 28 -29 29 -12 57 9 15 19 28 23 28 4 0 26 -21 48 -46z m-155 10
c3 -8 9 -13 13 -11 5 3 14 -1 20 -9 8 -8 9 -15 3 -19 -6 -3 -10 -1 -10 6 0 8
-6 6 -18 -5 -18 -15 -20 -15 -36 2 -18 20 -12 52 9 52 7 0 16 -7 19 -16z m-26
-55 c18 -17 31 -33 29 -36 -7 -6 -87 36 -87 46 0 9 11 21 19 21 3 0 21 -14 39
-31z m67 1 c9 8 21 6 44 -7 34 -20 39 -34 16 -53 -12 -10 -18 -10 -30 0 -8 7
-12 16 -9 21 3 5 2 8 -3 7 -16 -5 -54 23 -46 35 5 8 8 8 11 -1 3 -9 8 -10 17
-2z m197 -67 c21 -19 25 -41 4 -23 -13 10 -15 7 -13 -17 2 -22 -3 -29 -20 -31
-16 -2 -23 2 -23 12 0 19 16 21 24 4 4 -7 5 -4 2 8 -2 12 1 30 6 40 6 10 -2 4
-17 -14 -15 -18 -31 -29 -37 -26 -5 4 -1 15 11 28 12 12 18 26 14 29 -15 15
32 6 49 -10z"/>
<path d="M1994 1477 l-131 -143 33 -42 c18 -24 35 -48 37 -55 4 -13 357 156
357 171 0 18 -146 212 -159 212 -3 0 -65 -64 -137 -143z m156 73 c0 -11 -66
-60 -82 -60 -9 0 -9 3 2 10 8 5 11 10 6 10 -6 0 3 13 18 29 25 26 56 32 56 11z
m16 -51 c3 -6 0 -17 -8 -25 -13 -13 -16 -13 -28 1 -12 14 -11 18 1 26 19 12
26 11 35 -2z m70 -24 c8 -19 -31 -53 -68 -61 -15 -4 -26 -10 -23 -14 3 -5 -11
-17 -30 -29 -31 -18 -36 -19 -42 -5 -9 25 13 40 34 23 16 -13 17 -12 4 4 -11
14 -11 17 0 18 8 1 18 1 22 0 5 -1 11 6 13 16 5 17 59 61 77 62 4 1 10 -6 13
-14z m-104 -13 c9 -9 9 -12 0 -12 -7 0 -23 -9 -35 -20 -20 -19 -23 -20 -34 -4
-10 14 -8 20 10 34 23 19 41 20 59 2z m-75 -48 c1 -5 -15 -22 -37 -37 -33 -24
-41 -26 -46 -13 -6 16 8 35 41 54 22 12 37 11 42 -4z m10 -61 c2 -5 -8 -18
-23 -28 -35 -23 -53 -1 -21 26 23 19 38 20 44 2z m-117 -19 c0 -8 4 -14 9 -14
5 0 12 -8 15 -17 8 -19 -17 -48 -33 -39 -17 11 -13 29 4 22 8 -3 15 -1 15 4 0
6 -7 10 -16 10 -10 0 -14 6 -11 15 4 8 2 17 -3 20 -6 4 -10 -1 -10 -9 0 -9 -4
-16 -10 -16 -13 0 -13 23 1 37 14 14 39 6 39 -13z"/>
<path d="M644 1278 l-29 -83 -48 3 c-27 2 -55 -2 -63 -9 -10 -8 -18 -8 -27 -1
-8 7 -19 6 -37 -3 -13 -7 -39 -11 -57 -8 -41 7 -105 -5 -98 -18 4 -5 37 -7 78
-4 40 2 84 4 99 5 14 0 37 4 51 9 31 12 67 3 67 -16 0 -8 6 -13 13 -10 6 2 11
9 10 15 -5 19 33 34 46 18 7 -8 28 -17 49 -20 20 -4 65 -16 99 -27 36 -12 72
-18 84 -14 15 5 19 4 15 -4 -4 -6 -18 -11 -31 -11 -13 0 -27 -4 -30 -10 -3 -5
-30 -10 -58 -10 -41 -1 -48 -3 -34 -11 9 -6 25 -8 35 -5 20 6 37 -3 45 -24 3
-10 6 -7 6 9 1 23 2 23 84 16 l82 -6 12 48 c6 26 14 55 17 63 5 12 -36 36
-169 103 -96 48 -177 87 -179 87 -2 0 -17 -37 -32 -82z m175 -19 c56 -28 101
-53 101 -57 0 -4 -4 -13 -9 -21 -8 -12 -14 -12 -44 2 -19 10 -46 17 -59 17
-30 0 -55 18 -61 45 -5 19 -5 19 -12 -2 -6 -19 -10 -20 -36 -11 -43 15 -35 44
10 40 22 -3 31 0 27 7 -4 6 -13 11 -21 11 -8 0 -17 5 -20 10 -13 21 28 8 124
-41z m-115 -46 c4 -4 19 -9 34 -11 33 -4 34 -5 26 -26 -6 -16 -15 -16 -86 0
-31 6 -31 6 -22 28 6 16 35 22 48 9z m140 -39 c30 -5 36 -11 36 -31 0 -16 -4
-23 -12 -19 -7 2 -32 10 -55 17 -24 6 -43 13 -43 14 0 17 15 35 26 31 7 -3 29
-8 48 -12z m103 -21 l-5 -28 18 23 c26 32 37 27 32 -13 -5 -43 -19 -53 -37
-29 -9 11 -14 14 -15 7 0 -7 -7 -13 -15 -13 -11 0 -12 5 -5 25 5 14 7 32 4 40
-4 10 0 15 11 15 13 0 16 -6 12 -27z"/>
<path d="M2145 1269 c-88 -45 -164 -84 -168 -88 -4 -5 0 -36 9 -69 l17 -62 56
6 c31 3 66 7 78 10 15 3 23 -2 26 -13 4 -17 5 -17 6 0 2 30 31 20 31 -12 0
-27 -2 -28 -61 -35 -34 -3 -77 -6 -94 -6 -33 0 -33 0 -40 -60 -4 -33 -7 -63
-7 -67 1 -4 31 -16 69 -26 50 -14 72 -16 85 -8 9 6 41 9 69 6 29 -2 48 0 43 4
-5 5 -38 11 -74 14 -36 4 -66 6 -67 7 -2 0 -3 9 -3 20 0 25 35 27 49 3 6 -10
11 -12 11 -5 0 19 38 14 43 -5 4 -17 5 -17 6 0 1 14 8 18 29 15 25 -3 27 -1
23 27 -4 41 -7 43 -46 51 -19 3 -35 12 -35 20 0 15 46 26 123 28 l52 1 -3 -52
c-5 -75 18 -113 71 -113 20 0 27 -5 27 -20 0 -11 5 -19 11 -18 6 2 13 -2 16
-9 5 -14 -61 -1 -83 17 -8 7 -17 10 -20 8 -3 -3 19 -29 48 -58 29 -30 44 -47
32 -39 -11 8 -6 1 10 -15 17 -16 25 -26 19 -22 -17 10 -16 -13 2 -44 14 -23
15 -19 14 62 -2 109 -19 143 -82 158 l-43 11 4 70 c4 65 3 71 -17 76 -24 6
-23 28 0 28 15 0 21 58 8 85 -4 8 -20 55 -35 104 -16 49 -33 91 -39 92 -5 2
-82 -33 -170 -77z m179 -19 c21 -41 56 -136 56 -152 0 -3 -19 -9 -42 -13 -40
-7 -41 -8 -19 -20 20 -10 21 -13 6 -18 -9 -4 -26 -7 -37 -7 -17 0 -18 3 -8 14
10 13 4 15 -37 18 -26 2 -47 8 -46 13 1 6 26 16 57 23 30 8 57 21 61 29 9 25
-5 53 -25 53 -11 0 -27 11 -36 25 -9 14 -23 25 -30 25 -26 0 -14 19 24 39 20
11 41 19 45 18 5 -1 19 -23 31 -47z m-88 -42 c-2 -17 -10 -23 -29 -23 -14 1
-24 -2 -21 -6 2 -4 -9 -9 -24 -11 -15 -3 -35 -9 -44 -13 -12 -5 -20 -2 -24 10
-9 23 5 34 49 37 20 2 37 6 37 10 0 6 10 9 52 17 5 0 6 -9 4 -21z m-181 -60
c14 -63 15 -68 5 -68 -6 0 -10 5 -10 10 0 6 -10 10 -21 10 -17 0 -20 4 -15 23
3 12 6 30 6 40 0 30 27 18 35 -15z m250 -6 c-3 -3 -108 -29 -154 -38 -14 -3
-28 -7 -33 -10 -4 -3 -8 2 -8 10 0 9 -1 19 -2 23 -2 4 13 10 33 15 48 10 77
16 119 26 28 6 36 5 41 -7 4 -9 5 -17 4 -19z m-220 -172 c3 -5 -3 -10 -14 -10
-12 0 -21 -4 -21 -10 0 -5 7 -10 15 -10 10 0 15 -10 15 -30 0 -25 -4 -30 -25
-30 -16 0 -25 6 -25 15 0 18 16 20 23 3 3 -7 6 -3 6 9 1 16 -3 21 -14 17 -16
-6 -20 12 -9 40 7 18 39 22 49 6z m148 -10 c21 0 27 -5 27 -21 0 -18 -5 -19
-42 -15 -24 3 -44 5 -45 5 -2 1 -4 9 -4 19 -1 16 -2 16 -6 0 -5 -21 -43 -24
-43 -5 0 23 14 29 50 23 19 -3 47 -6 63 -6z m254 -168 c6 -4 14 -21 18 -37 6
-27 5 -28 -6 -10 -6 11 -19 28 -27 38 -15 17 -7 23 15 9z"/>
<path d="M2757 1263 c3 -10 10 -24 16 -31 9 -11 5 -62 -10 -119 -8 -33 15 -29
28 4 17 45 13 122 -7 144 -21 24 -35 25 -27 2z"/>
<path d="M2660 1261 c0 -13 -72 -20 -92 -9 -12 6 -18 5 -18 -3 0 -8 -12 -10
-34 -6 -19 3 -37 2 -41 -1 -7 -7 -11 -8 -65 -11 -30 -1 -33 -3 -18 -14 12 -10
34 -11 93 -3 58 7 82 6 97 -3 11 -7 32 -10 48 -6 25 5 28 3 28 -22 0 -15 -5
-31 -10 -34 -6 -4 -7 -12 -4 -18 12 -19 26 -2 26 30 0 16 6 32 13 34 11 4 51
12 70 14 4 1 7 6 7 11 0 6 -13 10 -30 10 -23 0 -30 4 -30 20 0 13 -7 20 -20
20 -11 0 -20 -4 -20 -9z"/>
<path d="M2800 1264 c0 -12 24 -49 36 -57 19 -11 18 -27 -1 -27 -8 0 -15 -5
-15 -10 0 -6 11 -8 25 -4 16 4 25 2 25 -5 0 -6 -11 -16 -25 -21 -31 -12 -32
-27 -3 -51 28 -25 31 -24 23 11 -8 37 6 39 34 4 25 -32 26 -44 6 -44 -8 0 -15
-7 -15 -15 0 -8 7 -15 15 -15 9 0 18 -6 21 -14 6 -16 44 -29 44 -15 0 32 -142
269 -161 269 -5 0 -9 -3 -9 -6z"/>
<path d="M200 1230 c0 -11 -7 -20 -15 -20 -8 0 -15 -6 -15 -14 0 -13 -28 -29
-52 -31 -13 0 -26 -20 -62 -90 -40 -78 -43 -102 -21 -146 14 -26 18 -28 38
-17 l22 13 -23 3 c-23 4 -47 36 -37 51 3 5 20 13 38 17 l32 7 -28 9 c-33 12
-33 15 -3 51 20 24 24 26 30 12 3 -9 10 -14 16 -10 6 4 5 14 -2 30 -13 30 -3
62 15 47 8 -7 18 -7 27 -2 8 6 11 10 5 10 -19 0 50 40 70 40 20 1 55 22 55 34
0 3 -11 6 -24 6 -14 0 -28 5 -31 10 -11 18 -35 11 -35 -10z"/>
<path d="M1145 1150 c-3 -5 3 -15 15 -22 26 -17 26 -31 -1 -23 -15 5 -19 4
-15 -4 11 -17 56 -14 56 4 0 9 -7 18 -15 21 -8 4 -15 10 -15 15 0 4 7 6 15 3
8 -4 15 -1 15 5 0 14 -47 15 -55 1z"/>
<path d="M1212 1128 c2 -28 7 -33 28 -33 21 0 26 5 28 33 2 18 -1 32 -7 32 -6
0 -11 -13 -11 -30 0 -16 -4 -30 -10 -30 -5 0 -10 14 -10 30 0 17 -5 30 -11 30
-6 0 -9 -14 -7 -32z"/>
<path d="M1287 1154 c-9 -10 4 -34 19 -34 8 0 14 -5 14 -11 0 -6 -9 -8 -21 -4
-15 5 -19 4 -15 -4 10 -16 56 -14 56 3 0 7 -10 21 -22 30 l-23 17 24 -7 c16
-4 21 -3 17 5 -8 12 -39 15 -49 5z"/>
<path d="M1358 1153 c6 -2 12 -18 12 -34 0 -16 5 -29 10 -29 6 0 10 13 10 29
0 16 6 32 13 34 6 3 -4 5 -23 5 -19 0 -29 -2 -22 -5z"/>
<path d="M1421 1129 c-6 -18 -11 -33 -11 -34 0 -1 13 -2 30 -1 33 1 34 3 20
40 -13 35 -26 33 -39 -5z"/>
<path d="M1483 1125 c3 -46 17 -46 17 0 0 19 -4 35 -9 35 -5 0 -9 -16 -8 -35z"/>
<path d="M1521 1123 c1 -24 3 -30 6 -15 2 12 9 20 14 17 11 -7 11 -3 3 19 -11
29 -24 17 -23 -21z"/>
<path d="M1559 1140 c-1 -11 -2 -25 -3 -32 -1 -6 5 -13 12 -15 8 -3 12 7 12
31 0 37 -19 51 -21 16z"/>
<path d="M1601 1129 c-6 -18 -11 -33 -11 -34 0 -1 13 -2 30 -1 33 1 34 3 20
40 -13 35 -26 33 -39 -5z"/>
<path d="M1660 1126 c0 -33 2 -36 30 -36 27 0 30 3 27 33 -2 27 -7 33 -30 35
-25 3 -27 1 -27 -32z"/>
<path d="M1730 1125 c0 -32 3 -35 28 -34 16 1 20 3 10 6 -12 3 -18 14 -18 34
0 16 -4 29 -10 29 -5 0 -10 -16 -10 -35z"/>
<path d="M1790 1125 c0 -32 3 -35 28 -34 16 1 20 3 10 6 -10 2 -18 8 -18 13 0
5 8 11 18 13 16 4 16 5 0 6 -10 0 -18 5 -18 10 0 5 8 12 18 14 10 3 6 5 -10 6
-25 1 -28 -2 -28 -34z"/>
<path d="M2706 1115 c4 -23 2 -35 -5 -35 -6 0 -11 7 -11 15 0 18 -12 19 -29 3
-10 -11 -14 -10 -22 4 -5 10 -17 14 -29 11 -11 -3 -20 0 -20 6 0 6 -7 11 -15
11 -13 0 -14 -4 -5 -20 8 -14 17 -19 30 -15 12 4 23 -2 33 -16 9 -11 20 -18
27 -14 6 4 16 2 23 -3 8 -7 19 -5 35 8 23 19 29 40 12 40 -5 0 -10 9 -10 20 0
11 -5 20 -10 20 -7 0 -8 -13 -4 -35z"/>
<path d="M210 1122 c-39 -6 -70 -41 -70 -79 0 -20 -4 -32 -10 -28 -17 10 -11
-42 6 -56 11 -9 14 -22 10 -43 -7 -34 -21 -46 -54 -46 -27 0 -25 -22 2 -26 10
-1 21 -6 24 -10 4 -4 -1 -4 -10 -1 -22 8 -23 -6 -3 -27 8 -8 15 -18 15 -21 0
-19 93 -144 102 -139 6 4 8 2 5 -3 -4 -6 12 -32 36 -59 51 -60 60 -66 69 -51
4 7 3 14 -2 15 -6 2 -10 19 -10 38 0 24 -5 34 -16 34 -8 0 -12 -4 -9 -10 7
-11 -6 -13 -29 -4 -9 3 -16 14 -16 24 0 9 -10 25 -22 36 -12 10 -18 13 -13 5
5 -9 4 -12 -3 -7 -11 6 -6 36 6 36 3 0 19 -12 35 -27 17 -16 27 -21 23 -13 -4
8 0 6 8 -4 9 -11 19 -17 22 -13 10 10 -7 66 -24 77 -14 9 -14 10 5 5 17 -5 21
-2 19 12 -2 10 -11 17 -20 17 -15 -2 -17 2 -20 32 -1 6 -7 18 -14 27 -10 12
-10 17 -1 23 7 4 10 3 7 -2 -4 -5 9 -20 27 -34 35 -26 55 -58 55 -88 0 -10 4
-22 10 -28 11 -11 16 -96 6 -112 -4 -6 -9 -27 -11 -46 -4 -31 0 -38 58 -88
104 -91 186 -147 208 -143 15 3 19 0 15 -10 -10 -27 220 -145 379 -194 82 -26
81 -26 88 -1 3 11 1 17 -4 14 -5 -3 -26 -3 -47 1 -35 6 -37 8 -36 45 0 21 9
50 20 65 10 15 27 39 36 54 10 14 20 25 24 23 3 -2 9 0 12 4 4 4 1 4 -5 0 -16
-9 -17 8 -3 35 7 13 7 19 1 19 -6 0 -20 -17 -31 -38 -40 -72 -65 -107 -78
-110 -7 -1 -12 4 -10 11 2 7 -16 30 -39 51 -34 30 -45 36 -60 27 -10 -6 -12
-11 -5 -11 6 0 22 -11 33 -24 13 -15 27 -22 37 -19 10 4 13 2 8 -6 -4 -6 -9
-26 -12 -44 -2 -23 -1 -28 6 -17 5 8 10 26 11 40 1 24 1 24 9 -4 5 -16 7 -34
3 -39 -3 -5 0 -13 7 -17 7 -4 9 -13 5 -20 -6 -10 -10 -9 -17 3 -5 9 -15 14
-23 11 -9 -4 -15 0 -15 10 0 9 -4 16 -10 16 -5 0 -10 15 -10 33 0 39 -6 47
-50 74 -41 25 -75 62 -85 92 -3 12 -10 21 -14 21 -5 0 -21 19 -36 41 -21 33
-25 48 -20 75 5 32 4 34 -20 34 -14 0 -24 -4 -20 -10 3 -5 12 -7 20 -3 8 3 15
0 15 -6 0 -6 -5 -11 -11 -11 -6 0 -8 -9 -4 -21 5 -16 4 -19 -5 -14 -9 5 -10 1
-5 -15 5 -15 4 -20 -4 -16 -6 4 -11 2 -11 -3 0 -6 4 -11 9 -11 5 0 2 -27 -6
-60 -10 -37 -21 -60 -29 -60 -8 0 -14 7 -14 16 0 9 5 12 12 8 7 -4 8 -3 4 5
-4 6 -4 25 -1 43 4 17 10 26 14 20 3 -5 7 12 8 39 0 27 -3 49 -8 49 -5 0 -9 8
-10 18 0 10 -3 12 -6 4 -2 -6 -9 -10 -14 -7 -4 3 -11 -6 -15 -20 -3 -13 -10
-22 -15 -19 -5 3 -6 -3 -2 -12 5 -13 3 -15 -7 -9 -9 6 -11 4 -5 -5 5 -8 3 -11
-6 -8 -8 3 -22 1 -32 -4 -12 -6 -22 -4 -34 7 -13 13 -18 14 -24 3 -7 -11 -9
-11 -9 1 0 10 -3 11 -14 2 -10 -9 -15 -8 -19 2 -6 17 44 96 62 97 7 0 11 6 7
15 -4 11 2 15 24 15 17 0 30 4 30 10 0 5 -7 6 -17 3 -11 -4 -14 -3 -9 5 10 17
-5 15 -32 -4 -12 -8 -22 -22 -22 -30 0 -22 -18 -17 -26 8 -9 29 24 51 79 54
27 2 36 -1 26 -7 -16 -10 1 -12 25 -3 34 13 15 27 -29 21 -36 -5 -43 -4 -39 8
7 17 104 22 104 6 0 -5 10 -6 23 -3 22 6 22 6 -3 12 -14 4 -24 11 -23 16 2 13
-96 16 -116 4 -10 -6 -12 -9 -3 -10 10 0 10 -5 2 -21 -13 -23 -22 -19 -27 12
-4 29 -59 94 -104 124 -46 30 -51 42 -9 20 39 -20 48 -19 19 4 -24 18 -68 37
-80 33 -4 0 -14 7 -24 18 -16 17 -16 20 1 47 10 15 23 31 28 35 5 3 11 19 12
35 1 15 6 42 9 59 5 24 1 37 -19 61 -28 33 -47 41 -86 35z m0 -43 c0 6 13 11
28 11 27 0 48 -15 67 -50 7 -12 6 -13 -6 -3 -8 7 -24 12 -34 11 -11 -1 -30 2
-42 6 -14 4 -23 3 -23 -3 0 -5 15 -12 33 -16 52 -11 67 -16 67 -24 0 -10 -61
-8 -77 2 -7 4 -23 3 -35 -4 l-23 -12 23 -10 c12 -6 22 -14 22 -20 0 -5 7 -4
15 3 15 12 35 6 35 -11 0 -11 -80 -6 -99 6 -13 8 -14 30 -2 53 15 27 24 56 22
66 -1 5 5 4 13 -4 11 -8 16 -9 16 -1z m2 -186 c25 -23 22 -36 -7 -29 -19 5
-23 3 -19 -9 4 -8 2 -15 -4 -15 -5 0 -10 16 -10 35 0 38 12 44 40 18z m-33
-92 c9 -6 22 -6 34 1 23 12 40 -6 33 -34 -2 -10 0 -18 5 -18 5 0 9 -14 9 -31
0 -17 4 -28 10 -24 6 4 7 -1 3 -11 -5 -15 -10 -12 -35 15 -16 17 -32 30 -37
27 -11 -7 -47 33 -56 62 -7 24 8 29 34 13z m246 -138 c3 -10 1 -19 -4 -21 -6
-2 -11 -12 -11 -22 0 -22 -16 -36 -22 -19 -2 6 -2 26 0 45 4 36 25 46 37 17z
m-13 -86 c-12 -13 -22 -32 -21 -43 0 -17 1 -16 9 4 13 30 30 28 30 -4 0 -14
-4 -23 -10 -19 -5 3 -10 1 -10 -6 0 -8 -7 -6 -19 5 -21 19 -17 53 8 73 27 21
36 14 13 -10z m221 -118 c-6 -6 -9 -18 -6 -25 3 -8 0 -14 -7 -14 -7 0 -9 -8
-5 -20 4 -12 2 -20 -5 -20 -7 0 -9 -8 -5 -20 4 -12 2 -20 -5 -20 -7 0 -9 -9
-5 -22 5 -18 4 -20 -4 -8 -6 8 -9 27 -6 41 4 19 2 26 -9 26 -8 0 -12 -5 -9
-10 3 -5 0 -7 -8 -5 -8 3 -13 11 -11 17 1 8 -2 9 -10 5 -14 -9 -38 -14 -38 -9
0 3 10 13 22 25 15 14 24 17 29 8 5 -7 14 0 26 20 11 18 22 29 25 26 4 -3 9 4
13 16 5 16 10 19 18 11 8 -8 8 -14 0 -22z m97 -87 c0 -7 -5 -10 -11 -7 -6 4
-5 -2 3 -14 15 -24 33 -29 24 -6 -3 8 -1 15 5 15 6 0 9 -15 6 -37 -6 -44 1
-72 14 -51 7 10 9 10 9 -2 0 -8 -5 -22 -10 -30 -7 -12 -10 -12 -10 -1 0 9 -8
11 -25 7 -14 -4 -25 -2 -25 3 0 5 -7 11 -16 13 -12 2 -16 18 -18 64 -2 61 -2
61 26 60 16 -1 28 -7 28 -14z m72 -74 c19 -31 3 -127 -18 -105 -3 3 -1 26 4
52 8 37 7 47 -4 52 -8 3 -14 9 -14 14 0 17 18 9 32 -13z m63 -95 c4 -21 3 -33
-4 -33 -6 0 -11 10 -11 21 0 19 -2 20 -17 8 -16 -12 -17 -12 -6 2 7 8 10 26 6
40 -5 21 -4 22 10 9 8 -8 18 -30 22 -47z"/>
<path d="M201 759 c29 -23 36 -23 36 -4 0 8 -3 15 -6 16 -3 0 -17 2 -30 3
l-23 3 23 -18z"/>
<path d="M435 1114 c-10 -15 -22 -19 -77 -23 -10 0 -18 -6 -18 -12 0 -7 9 -9
24 -5 14 3 26 1 28 -5 3 -9 10 -8 25 2 16 9 25 10 35 2 15 -13 108 -5 108 8 0
5 -13 6 -30 3 -16 -4 -41 -3 -55 0 -20 5 -25 11 -20 26 8 24 -6 26 -20 4z"/>
<path d="M2841 1053 c8 -13 17 -23 21 -23 5 0 8 -12 8 -26 0 -20 -4 -25 -16
-20 -9 3 -19 6 -24 6 -4 0 -10 9 -13 20 -3 11 -13 20 -23 20 -16 0 -15 -3 4
-23 12 -13 22 -29 22 -35 0 -7 7 -12 16 -12 22 0 12 -23 -15 -36 -18 -9 -19
-13 -7 -17 9 -4 22 0 29 8 11 10 17 11 26 2 19 -19 12 -35 -14 -33 -29 4 -60
-26 -51 -49 3 -9 10 -13 16 -10 6 4 8 11 5 16 -4 5 5 9 18 9 33 0 45 18 48 70
4 63 -8 104 -38 131 -25 24 -25 24 -12 2z"/>
<path d="M1145 1025 c0 -32 2 -36 25 -33 20 2 25 8 25 33 0 25 -5 31 -25 33
-23 3 -25 -1 -25 -33z m42 -9 c-4 -9 -11 -16 -17 -16 -11 0 -14 33 -3 44 11
10 26 -11 20 -28z"/>
<path d="M1210 1025 c0 -32 3 -35 28 -34 16 1 20 3 10 6 -21 5 -23 19 -5 26
10 4 10 6 0 6 -22 2 -14 21 7 21 15 0 22 -9 27 -30 7 -39 28 -38 42 1 13 38
13 39 2 39 -5 0 -12 -10 -16 -22 l-8 -23 -4 23 c-4 18 -11 22 -44 22 -38 0
-39 -1 -39 -35z"/>
<path d="M1340 1025 c0 -30 3 -35 23 -34 16 1 18 2 5 6 -10 2 -18 8 -18 13 0
5 8 11 18 13 16 4 16 5 -1 6 -21 1 -13 21 9 21 9 0 14 -11 14 -30 0 -30 0 -30
53 -27 51 2 52 3 52 32 0 25 -4 30 -25 30 -20 0 -26 -6 -28 -27 -5 -39 -32
-37 -32 2 0 28 -3 30 -35 30 -33 0 -35 -2 -35 -35z"/>
<path d="M1510 1025 c0 -40 2 -41 30 -18 29 25 26 53 -5 53 -22 0 -25 -4 -25
-35z"/>
<path d="M1570 1025 c0 -36 15 -48 23 -17 4 16 5 16 6 0 1 -25 16 -22 30 5
l12 22 -5 -22 c-2 -13 0 -23 5 -23 5 0 9 16 9 35 0 40 -16 46 -30 13 l-9 -23
-7 23 c-10 36 -34 27 -34 -13z"/>
<path d="M1660 1025 c0 -33 2 -35 34 -35 29 0 34 4 39 27 7 37 2 43 -39 43
-32 0 -34 -2 -34 -35z m50 0 c0 -16 -6 -25 -15 -25 -18 0 -20 20 -2 21 10 0
10 2 0 6 -18 7 -16 23 2 23 9 0 15 -9 15 -25z"/>
<path d="M1760 1039 c0 -13 -4 -18 -12 -13 -8 5 -9 2 -5 -10 4 -10 7 -20 7
-22 0 -2 6 -4 13 -4 9 0 12 10 9 30 -3 23 0 30 12 30 11 0 16 -9 16 -30 0 -16
5 -30 10 -30 6 0 10 14 10 31 0 17 4 28 10 24 6 -3 10 -1 10 4 0 6 -18 11 -40
11 -34 0 -40 -3 -40 -21z"/>
<path d="M670 1040 c-8 -5 -30 -7 -49 -3 l-34 6 7 -109 c9 -144 11 -159 22
-157 5 1 11 12 14 25 5 20 13 24 73 29 80 7 96 20 99 76 2 57 -14 74 -63 68
-22 -3 -57 -7 -79 -10 -37 -5 -40 -3 -40 19 0 39 52 40 192 5 33 -8 37 -13 43
-52 4 -23 12 -47 17 -54 7 -9 -1 -16 -27 -28 -21 -8 -41 -15 -45 -15 -4 0 -13
-7 -20 -15 -18 -22 -3 -20 117 12 l102 27 -5 61 c-3 33 -7 65 -9 71 -2 6 -45
14 -102 18 -173 14 -175 14 -148 26 16 7 17 9 3 9 -9 1 -20 -3 -23 -9 -3 -5
-11 -10 -16 -10 -6 0 -7 5 -4 10 8 13 -5 13 -25 0z m240 -111 c0 -21 -4 -39
-9 -39 -9 0 -21 70 -14 83 10 17 23 -7 23 -44z m45 5 c0 -29 -4 -40 -17 -42
-11 -2 -18 3 -18 13 0 9 4 14 9 11 5 -3 9 5 9 19 0 14 -4 22 -9 19 -11 -6 -12
10 -2 20 15 15 28 -3 28 -40z m-168 -4 c-1 -17 -9 -20 -52 -21 -27 0 -60 -2
-72 -5 -18 -3 -23 1 -23 15 0 20 10 23 107 29 36 2 42 0 40 -18z m-13 -47 c8
-20 8 -20 -36 -27 -30 -5 -38 -3 -38 9 0 8 -4 15 -10 15 -5 0 -7 -7 -4 -15 5
-11 -1 -15 -20 -15 -48 0 -27 34 24 39 19 1 36 4 37 5 10 9 43 1 47 -11z"/>
<path d="M2700 1035 c-8 -10 -10 -38 -6 -90 4 -57 2 -78 -9 -89 -11 -10 -12
-15 -3 -18 8 -3 5 -12 -10 -28 -12 -13 -19 -27 -16 -32 6 -9 -15 -76 -31 -97
-8 -12 -6 -12 13 -2 12 7 20 16 17 21 -10 15 6 39 22 33 12 -5 14 -3 8 8 -8
12 -6 12 8 0 10 -8 17 -9 17 -3 0 6 -7 15 -16 20 -11 6 -13 12 -6 16 6 4 17
-2 24 -13 9 -16 16 -18 31 -9 16 8 19 7 14 -4 -3 -8 1 -15 8 -15 10 0 11 5 5
18 -8 13 -5 18 13 23 12 3 24 1 25 -4 2 -6 7 -8 12 -5 4 3 6 -3 3 -13 -2 -10
-33 -35 -68 -57 -50 -30 -62 -42 -53 -52 7 -9 7 -17 -2 -28 -10 -12 -10 -15 3
-15 8 0 18 7 21 16 5 13 9 14 21 4 14 -11 19 -7 16 13 0 4 3 7 8 7 5 0 26 22
46 50 36 49 41 89 12 91 -7 0 -2 4 11 9 13 6 22 18 22 30 0 17 -3 19 -19 10
-11 -5 -21 -15 -23 -21 -3 -9 -9 -9 -25 0 -15 7 -24 8 -28 1 -4 -6 -12 -4 -22
5 -11 12 -14 27 -9 55 4 23 2 40 -3 40 -5 0 -9 9 -8 20 1 11 5 20 9 20 4 0 8
9 8 20 0 24 8 25 32 3 30 -27 32 -7 1 27 -15 18 -27 36 -25 41 4 15 -35 10
-48 -6z m29 -239 c26 -27 11 -48 -17 -23 -9 8 -23 12 -29 10 -7 -3 -13 0 -13
7 0 6 5 8 10 5 6 -3 10 1 10 9 0 23 13 20 39 -8z"/>
<path d="M2561 1031 c-22 -6 -22 -7 -7 -20 13 -11 20 -11 28 -3 7 7 23 12 38
13 23 0 23 1 5 9 -23 10 -32 10 -64 1z"/>
<path d="M392 1023 c-33 -7 -16 -23 24 -23 32 0 34 2 20 15 -8 8 -16 14 -18
14 -2 -1 -13 -4 -26 -6z"/>
<path d="M480 1000 c0 -6 19 -10 42 -10 49 0 47 6 -4 14 -23 3 -38 2 -38 -4z"/>
<path d="M1760 957 c-15 -8 -26 -23 -28 -39 -3 -22 3 -29 37 -44 43 -19 53
-40 25 -51 -10 -4 -22 1 -29 10 -13 18 -45 23 -45 9 0 -36 85 -55 114 -26 29
29 14 56 -46 82 -16 6 -28 16 -28 22 0 19 30 23 49 6 32 -29 54 -17 29 16 -19
23 -50 29 -78 15z"/>
<path d="M2944 944 c-12 -12 -24 -39 -27 -60 -6 -38 -5 -37 24 20 17 32 29 59
27 60 -2 1 -12 -8 -24 -20z"/>
<path d="M1174 952 c-18 -12 -34 -49 -34 -80 0 -44 30 -76 73 -76 47 0 65 16
59 54 -4 25 -9 30 -33 30 -16 0 -29 -4 -29 -10 0 -5 7 -10 15 -10 8 0 15 -9
15 -20 0 -20 -15 -25 -44 -14 -23 9 -22 92 0 101 9 3 25 1 35 -5 25 -16 39
-15 39 3 0 27 -67 47 -96 27z"/>
<path d="M1318 928 c-29 -31 -25 -47 8 -34 10 4 14 13 10 22 -3 8 -2 12 4 9 6
-3 10 0 10 7 0 9 3 9 10 -2 8 -12 10 -11 10 8 0 31 -17 28 -52 -10z"/>
<path d="M1380 939 c0 -11 5 -17 10 -14 6 3 13 -1 16 -9 3 -9 9 -14 13 -12 8
6 6 -48 -3 -63 -10 -16 8 -20 22 -5 7 8 9 14 5 14 -4 0 -1 5 7 10 13 9 13 11
0 20 -10 7 -11 10 -2 10 10 0 10 4 0 20 -7 11 -18 18 -25 16 -8 -3 -10 1 -6
11 4 11 2 14 -5 9 -7 -4 -12 -2 -12 3 0 6 -4 11 -10 11 -5 0 -10 -9 -10 -21z"/>
<path d="M1481 893 c-12 -38 -25 -74 -28 -80 -3 -8 3 -13 16 -13 12 0 21 6 21
15 0 10 11 15 35 15 24 0 35 -5 35 -15 0 -8 9 -15 20 -15 17 0 18 3 9 28 -6
15 -20 51 -31 80 -28 74 -48 70 -77 -15z m58 -20 c1 -7 -8 -13 -18 -13 -18 0
-19 3 -9 32 10 28 12 30 19 12 4 -10 8 -25 8 -31z"/>
<path d="M1610 880 l0 -80 56 0 c64 0 73 23 11 28 l-37 3 0 65 c0 50 -3 64
-15 64 -12 0 -15 -16 -15 -80z"/>
<path d="M2457 954 c-16 -17 -6 -31 18 -26 14 2 24 10 22 16 -4 13 -30 20 -40
10z"/>
<path d="M343 925 c-10 -7 -15 -17 -10 -21 4 -4 12 -3 18 3 6 6 18 9 25 6 8
-3 14 -1 14 5 0 17 -27 21 -47 7z"/>
<path d="M2560 933 c-58 -11 -41 -23 31 -22 73 1 74 1 39 14 -19 7 -37 13 -40
13 -3 0 -16 -3 -30 -5z"/>
<path d="M1290 870 c0 -5 5 -10 12 -10 6 0 8 -3 5 -6 -3 -4 -2 -16 4 -26 14
-27 29 -10 22 25 -4 18 -12 27 -24 27 -11 0 -19 -4 -19 -10z"/>
<path d="M1347 825 c-9 -23 -4 -27 28 -27 33 0 40 6 30 29 -8 17 -8 17 -13 -1
-3 -15 -6 -16 -13 -5 -7 12 -9 12 -10 -1 0 -10 -3 -9 -8 4 -7 19 -8 19 -14 1z"/>
<path d="M2634 814 c-13 -20 -23 -24 -41 -19 -16 4 -22 2 -18 -5 3 -5 13 -10
21 -10 8 0 14 -7 14 -16 0 -13 -3 -14 -14 -4 -8 6 -25 10 -38 8 -25 -3 -23 12
-31 -256 -1 -57 -3 -67 -10 -45 -4 15 -8 47 -8 70 0 23 -5 48 -12 55 -7 7 -18
33 -26 56 -24 83 -21 34 4 -59 14 -52 25 -114 25 -139 0 -33 3 -41 10 -30 8
13 10 12 10 -2 0 -10 -5 -18 -11 -18 -5 0 -7 -4 -4 -10 3 -5 1 -10 -4 -10 -6
0 -11 10 -11 21 0 18 -3 19 -15 9 -12 -10 -16 -9 -21 4 -4 9 -4 20 0 23 3 4 6
1 6 -6 0 -7 5 -9 10 -6 17 11 11 32 -11 38 -15 4 -19 11 -14 25 3 11 1 23 -5
27 -6 4 -8 15 -5 25 3 10 1 21 -5 25 -6 4 -8 15 -5 25 3 10 0 20 -8 23 -10 4
-8 -27 11 -137 13 -77 26 -143 28 -145 9 -9 203 166 254 230 l29 36 -29 -1
c-25 -1 -30 -5 -30 -27 0 -19 -5 -26 -17 -25 -41 3 -66 59 -36 81 17 13 16 14
-11 25 -27 10 -28 11 -12 29 16 18 16 19 -1 17 -10 0 -21 -5 -25 -11 -5 -6 -8
-4 -8 5 0 8 -3 25 -6 38 -8 28 9 29 36 0 l20 -22 0 25 c0 13 6 35 13 49 31 59
31 81 1 34z m-69 -154 c-3 -5 9 -14 27 -19 32 -9 33 -9 5 -10 -15 -1 -30 -8
-33 -16 -4 -8 -10 -12 -16 -9 -5 3 -4 12 4 22 10 11 10 16 1 19 -7 2 -9 11 -6
19 3 7 9 11 14 8 5 -3 7 -9 4 -14z m68 -148 c-5 -12 -8 -11 -15 2 -5 9 -13 14
-19 11 -5 -4 -9 0 -9 7 -1 7 -9 -2 -18 -20 -18 -32 -32 -34 -32 -3 0 9 7 27
16 39 13 18 19 21 30 11 9 -7 14 -8 14 -1 0 6 -9 14 -20 17 -11 4 -17 11 -13
17 9 16 73 -62 66 -80z m-40 -13 c3 -12 3 -18 -1 -14 -4 3 -12 -9 -18 -27 -10
-26 -13 -28 -13 -11 -1 19 17 73 24 73 2 0 5 -9 8 -21z"/>
<path d="M2147 823 c-4 -3 -7 -14 -7 -24 0 -29 -14 -30 -82 -9 -34 11 -66 20
-70 20 -7 0 -58 -99 -58 -112 0 -2 27 -24 59 -48 58 -42 59 -43 44 -66 -8 -13
-18 -24 -20 -24 -3 0 -26 17 -52 38 -25 21 -51 41 -57 45 -6 3 -32 -14 -58
-39 l-47 -45 39 -62 c26 -42 45 -61 57 -60 20 1 28 -5 69 -60 37 -49 58 -60
90 -47 32 12 56 -9 50 -42 -3 -14 0 -11 7 7 7 17 17 37 23 45 10 13 9 13 -8 0
-16 -13 -20 -12 -31 3 -7 9 -39 47 -71 83 -32 37 -63 74 -68 83 -5 9 -15 20
-23 24 -17 11 -17 24 3 31 10 4 24 -4 39 -22 13 -16 39 -46 59 -67 28 -32 32
-43 23 -55 -10 -13 -10 -13 4 -3 22 18 33 3 11 -14 -16 -14 -16 -14 2 -9 12 4
28 -1 43 -15 47 -45 21 0 -42 72 -36 40 -65 79 -65 86 0 15 26 17 35 3 11 -18
23 -11 30 17 4 17 2 29 -4 31 -6 2 -11 10 -11 19 0 19 23 11 100 -32 32 -18
69 -36 82 -40 23 -6 23 -6 3 10 -11 9 -47 30 -80 47 -33 16 -61 31 -63 33 -6
5 11 35 20 35 6 0 7 -7 4 -16 -5 -13 -3 -14 6 -7 15 12 73 -18 61 -31 -4 -4 1
-4 11 0 12 4 17 4 13 -2 -3 -5 2 -10 11 -10 9 -1 25 -5 35 -9 16 -7 18 -3 15
36 -3 47 1 43 -102 91 -26 13 -48 28 -47 33 1 6 22 9 46 8 44 -3 45 -2 45 28
0 26 -3 30 -20 26 -10 -3 -21 0 -24 7 -2 6 -5 1 -5 -11 -1 -12 -5 -25 -11 -28
-6 -4 -7 6 -4 25 6 30 4 36 -9 23z m-120 -54 c13 -13 -11 -67 -34 -76 -29 -11
-39 15 -19 52 20 36 34 43 53 24z m67 -53 c-6 -21 -6 -21 11 -1 15 19 16 19
11 1 -5 -15 -4 -17 7 -7 19 15 46 -14 29 -31 -12 -12 -92 28 -92 47 0 17 10
24 26 18 10 -3 12 -13 8 -27z m0 -46 c5 -5 6 -15 3 -24 -5 -13 -9 -13 -36 0
-31 15 -37 25 -24 37 7 8 43 -1 57 -13z m129 -1 c53 -27 50 -25 40 -43 -7 -13
-11 -13 -33 -1 -14 8 -35 19 -47 24 -15 7 -20 16 -17 26 8 19 7 19 57 -6z
m-313 -54 c7 -9 11 -17 9 -19 -14 -10 -77 -46 -83 -46 -17 0 -2 21 25 35 19
11 29 22 25 31 -7 19 8 18 24 -1z m4 -108 c-1 -10 4 -13 15 -9 14 5 14 4 1
-13 -12 -15 -12 -17 -1 -10 10 6 30 -9 73 -55 32 -35 58 -67 58 -71 0 -4 -7
-10 -16 -13 -23 -9 -56 34 -41 54 10 13 10 13 -4 3 -13 -11 -19 -9 -34 7 -15
17 -16 22 -4 37 12 16 12 17 -2 6 -13 -11 -21 -7 -49 22 -21 22 -30 39 -26 50
7 20 31 14 30 -8z"/>
<path d="M523 803 c-13 -8 -23 -23 -23 -33 0 -10 -7 -23 -15 -30 -19 -16 -20
-60 -1 -60 8 0 18 5 21 10 3 6 -1 10 -9 10 -18 0 -20 8 -7 28 6 11 15 9 41 -7
19 -11 37 -18 42 -15 4 3 8 0 8 -5 0 -6 7 -11 16 -11 9 0 23 -8 30 -17 12 -16
12 -16 7 6 -4 14 -1 26 8 32 11 7 11 9 -3 9 -9 0 -25 11 -36 25 -11 14 -26 23
-34 20 -7 -3 -22 2 -33 10 -19 16 -19 16 8 10 26 -5 27 -4 17 15 -6 11 -12 20
-13 19 -1 0 -12 -7 -24 -16z"/>
<path d="M925 789 c-35 -11 -61 -14 -63 -9 -2 6 -15 10 -28 10 -14 0 -22 -4
-19 -10 3 -5 14 -10 25 -10 10 0 20 -6 23 -14 4 -9 14 -12 26 -9 12 3 21 1 21
-3 0 -5 3 -19 6 -31 7 -26 -20 -33 -30 -8 -7 19 -36 20 -36 1 0 -8 -21 -25
-47 -37 -27 -13 -60 -32 -75 -42 -26 -17 -48 -16 -48 1 0 6 67 47 144 87 11 5
21 16 24 23 6 20 -42 14 -56 -8 -6 -11 -31 -29 -54 -41 -61 -30 -80 -49 -67
-65 12 -14 50 -113 52 -131 0 -7 7 -13 15 -13 9 0 12 6 8 15 -4 10 2 19 17 25
12 6 51 26 85 45 68 37 98 44 89 21 -6 -16 28 -62 37 -48 3 5 -1 20 -8 34 -13
25 -12 27 49 72 l63 46 -32 60 c-18 34 -37 59 -46 59 -8 0 -42 -9 -75 -20z
m90 -49 c0 -14 5 -28 10 -32 6 -5 4 -12 -5 -18 -26 -17 -32 -11 -26 28 5 26 4
33 -3 22 -12 -18 -26 -7 -17 15 9 26 41 14 41 -15z m-47 -15 c7 -14 12 -34 12
-43 -1 -15 -3 -14 -15 3 -8 11 -19 26 -25 33 -11 12 -6 32 9 32 4 0 13 -11 19
-25z m-81 -52 c2 -6 -11 -16 -29 -24 -18 -7 -35 -16 -38 -19 -3 -3 -27 -19
-54 -34 -38 -22 -50 -25 -57 -15 -5 9 12 24 64 52 40 21 76 43 82 48 11 11 27
7 32 -8z m73 -7 c0 -14 -123 -89 -147 -89 -7 0 -13 -4 -13 -8 0 -8 -52 -39
-65 -39 -3 0 -5 7 -5 15 0 18 36 38 53 29 6 -4 9 -3 4 1 -7 8 147 105 165 105
5 0 8 -6 8 -14z"/>
<path d="M2400 790 c24 -19 24 -19 3 -13 -14 3 -23 1 -23 -6 0 -6 7 -11 15
-11 8 0 19 -9 25 -20 6 -11 15 -18 21 -14 6 4 6 11 -2 20 -6 8 -8 14 -3 14 4
0 -3 11 -16 25 -13 14 -28 25 -34 25 -6 0 0 -9 14 -20z"/>
<path d="M718 787 c-41 -11 -49 -23 -20 -30 16 -4 16 -4 -2 -12 -10 -4 -21 -4
-25 1 -10 15 -39 16 -47 2 -4 -7 -3 -10 1 -5 5 4 19 0 32 -8 19 -13 30 -14 63
-4 22 7 40 18 40 25 0 7 3 19 6 28 7 18 5 18 -48 3z"/>
<path d="M2283 750 c0 -21 4 -29 13 -26 8 3 16 1 19 -4 4 -6 13 -10 21 -10 10
0 12 5 5 18 -5 9 -12 25 -15 35 -3 9 -14 17 -24 17 -14 0 -19 -7 -19 -30z"/>
<path d="M2351 746 c7 -14 15 -24 18 -22 14 9 70 -59 58 -70 -10 -10 -37 10
-37 26 0 11 -4 21 -9 24 -10 6 -9 -1 3 -45 6 -21 12 -25 28 -21 15 3 19 1 14
-7 -5 -7 -2 -10 6 -9 7 2 12 -4 10 -14 -1 -9 1 -19 6 -22 23 -14 -12 109 -38
132 -24 22 -42 36 -58 46 -10 6 -10 2 -1 -18z"/>
<path d="M2349 680 c-5 -35 -3 -88 2 -84 4 2 9 -5 12 -16 3 -12 1 -20 -6 -19
-42 5 -65 -3 -75 -27 -7 -14 -8 -23 -3 -20 5 3 11 -4 14 -16 4 -12 1 -26 -6
-30 -13 -8 -4 -21 17 -24 9 -1 12 5 8 18 -4 17 0 19 36 17 l41 -3 -4 -48 c-3
-32 -1 -47 5 -43 6 4 7 12 4 18 -5 8 -4 9 4 2 17 -15 27 -75 13 -75 -14 0 -91
69 -91 82 0 5 5 6 10 3 6 -3 10 -2 10 3 0 6 -10 10 -22 9 -13 0 -31 3 -40 7
-12 5 -18 4 -18 -4 0 -6 4 -9 9 -6 4 3 16 -3 26 -14 15 -16 15 -22 5 -35 -7
-8 -22 -15 -34 -16 -11 0 -15 -3 -8 -6 6 -2 12 -9 12 -14 0 -4 -7 -6 -15 -3
-8 4 -15 2 -15 -3 0 -21 38 -9 55 18 22 32 41 39 30 12 -4 -10 -16 -42 -26
-72 -10 -30 -24 -60 -30 -67 -7 -9 -7 -14 -1 -14 10 0 39 30 35 37 -2 1 -3 11
-3 21 0 14 2 15 9 2 6 -8 7 -18 4 -24 -4 -5 1 -7 11 -3 10 4 20 7 22 7 2 0 4
5 4 11 0 6 -6 9 -14 6 -21 -8 -28 21 -15 61 10 30 14 33 23 20 6 -8 16 -15 21
-14 6 1 11 -11 13 -26 4 -34 5 -34 42 -6 22 16 27 25 20 37 -8 16 -47 195 -55
251 -4 36 -33 108 -36 90z m-35 -152 c-6 -10 -5 -10 8 -1 17 15 29 7 21 -13
-4 -12 -33 -21 -33 -10 0 2 -3 11 -6 20 -3 9 -1 16 6 16 6 0 8 -5 4 -12z"/>
<path d="M2669 630 c0 -23 -1 -23 -9 -5 -9 21 -15 7 -10 -24 1 -13 -1 -13 -14
-2 -15 12 -15 11 -8 -10 5 -13 15 -25 23 -27 17 -3 42 69 28 83 -5 5 -9 0 -10
-15z"/>
<path d="M1040 590 c-38 -34 -51 -52 -43 -57 8 -6 -9 -31 -57 -83 -63 -66 -80
-90 -65 -90 2 0 29 26 60 57 43 45 58 54 67 45 10 -10 0 -25 -45 -70 -53 -54
-81 -97 -37 -57 26 23 52 6 30 -20 -7 -9 -8 -15 -2 -15 13 0 128 124 153 164
l18 29 -4 -46 c-2 -25 -9 -56 -16 -69 -12 -23 -12 -23 15 2 15 13 24 30 22 37
-3 7 12 41 33 75 l39 61 -46 43 c-26 24 -51 43 -57 43 -5 1 -35 -22 -65 -49z
m97 -12 c13 -12 23 -29 23 -37 0 -11 -10 -6 -30 16 -17 18 -30 34 -30 37 0 12
14 5 37 -16z m-23 -27 c35 -36 17 -51 -18 -16 -26 26 -33 45 -18 45 5 0 21
-13 36 -29z m-48 -22 c3 -6 -6 -24 -22 -40 -36 -38 -55 -23 -25 20 24 33 36
38 47 20z m24 -52 c0 -7 -8 -19 -17 -28 -10 -8 -38 -37 -62 -63 -30 -33 -46
-45 -53 -38 -8 8 7 31 47 76 54 63 85 82 85 53z"/>
<path d="M631 607 c-6 -8 -9 -17 -6 -21 3 -3 -1 -2 -7 4 -13 11 -46 14 -35 3
4 -3 -1 -12 -11 -19 -14 -11 -15 -13 -1 -14 8 0 20 5 27 12 7 7 12 9 12 5 0
-3 -25 -22 -55 -42 -30 -19 -55 -42 -55 -50 0 -8 -5 -15 -11 -15 -5 0 -7 -4
-4 -10 12 -19 35 -10 81 35 25 25 50 45 55 45 5 0 21 7 34 16 21 13 22 19 13
40 -13 27 -21 30 -37 11z"/>
<path d="M2082 545 c-10 -21 -8 -27 15 -45 30 -23 40 -25 46 -7 2 6 2 2 1 -10
-4 -22 10 -40 20 -25 3 5 27 6 54 2 42 -5 51 -3 62 13 6 10 7 16 2 13 -6 -3
-13 0 -15 6 -3 8 -6 6 -6 -4 -1 -20 -36 -25 -46 -7 -4 6 -13 8 -21 5 -8 -3
-13 -1 -11 3 1 5 -19 25 -44 44 l-46 36 -11 -24z"/>
<path d="M2459 570 c-6 -16 -5 -49 2 -45 4 3 10 -3 12 -12 4 -15 5 -15 5 2 1
20 -15 65 -19 55z"/>
<path d="M876 541 c-4 -6 -4 -20 -1 -31 5 -15 1 -22 -17 -29 -14 -5 -25 -5
-29 2 -4 6 -19 1 -39 -13 -26 -19 -34 -20 -41 -9 -18 29 -8 -4 17 -54 32 -64
81 -117 101 -110 11 4 6 14 -19 42 -64 68 -64 64 2 110 63 44 69 55 47 86 -10
12 -16 15 -21 6z"/>
<path d="M1683 506 c-59 -24 -61 -27 -39 -118 12 -52 12 -58 -3 -58 -40 -1
-42 -12 -17 -131 13 -62 22 -116 20 -118 -2 -2 -14 -5 -26 -6 -38 -4 -39 -5
-34 -14 3 -5 0 -13 -7 -18 -16 -13 -57 -14 -57 -2 0 8 22 13 43 10 4 0 7 3 7
9 0 15 -107 13 -113 -2 -4 -10 -6 -10 -6 0 -1 15 -57 16 -67 0 -4 -7 -3 -8 4
-4 7 4 12 2 12 -3 0 -6 -6 -11 -14 -11 -8 0 -21 -3 -30 -6 -14 -5 -16 2 -14
47 l2 54 3 -48 c8 -91 21 -36 22 89 1 70 4 130 6 135 3 4 -1 12 -10 16 -11 7
-13 16 -6 43 5 19 12 51 15 71 l6 36 -58 22 c-33 11 -62 21 -65 21 -3 0 -22
-27 -42 -60 -20 -33 -42 -60 -48 -60 -16 0 -59 -68 -53 -83 3 -8 5 -8 5 1 1 7
6 10 13 6 7 -4 8 -3 4 4 -4 7 -2 12 4 12 6 0 9 4 6 9 -8 12 81 64 94 56 6 -3
10 -19 10 -35 0 -27 -3 -29 -27 -24 -16 2 -33 1 -39 -3 -16 -12 -64 -152 -54
-158 5 -3 14 12 21 34 9 29 16 38 28 34 13 -4 13 -3 2 5 -16 11 -6 52 12 48 7
-1 9 -1 5 1 -5 3 -8 11 -8 19 0 16 9 18 30 4 12 -7 10 -20 -13 -86 -17 -47
-24 -81 -18 -87 5 -5 14 6 21 30 7 21 22 46 34 56 18 15 18 16 2 11 -16 -6
-17 -4 -7 14 6 11 16 23 23 25 9 4 10 6 1 6 -19 1 10 74 30 77 9 1 19 -1 22
-6 5 -9 -23 -100 -36 -115 -5 -5 -9 -16 -9 -25 0 -8 -7 -28 -15 -44 -21 -39
-19 -54 4 -29 10 11 28 53 40 93 36 127 43 113 33 -65 -5 -104 -10 -140 -21
-143 -10 -3 -13 2 -9 22 4 21 2 26 -9 21 -9 -3 -31 4 -50 16 -38 24 -37 25
-51 -16 -6 -18 -11 -23 -11 -12 -1 10 -5 16 -10 13 -5 -4 -7 4 -3 16 5 21 6
21 13 2 7 -18 8 -18 8 2 1 12 -6 24 -14 28 -10 3 -15 -1 -15 -14 0 -10 -4 -22
-10 -25 -5 -3 -10 -14 -10 -24 0 -20 47 -35 75 -25 8 4 21 2 28 -4 12 -10 97
-22 175 -24 28 -1 47 4 53 13 7 11 9 11 9 1 0 -7 8 -12 18 -11 9 1 22 0 27 -1
84 -16 407 41 530 94 16 7 60 26 97 40 81 33 94 43 102 79 6 26 5 27 -14 15
-11 -7 -23 -21 -26 -32 -5 -15 -8 -16 -15 -5 -7 11 -9 11 -9 -3 0 -10 -9 -22
-20 -28 -18 -9 -20 -8 -20 15 0 14 6 41 14 60 8 19 11 37 6 40 -6 3 -5 16 0
30 5 14 6 25 2 25 -4 0 0 5 8 11 12 8 12 10 -5 7 -14 -2 -21 -12 -23 -33 -2
-16 -9 -33 -15 -37 -8 -5 -6 -8 6 -8 9 0 17 -5 17 -11 0 -6 -6 -9 -12 -6 -10
3 -13 -9 -11 -44 0 -26 4 -53 8 -58 6 -11 -7 -15 -32 -12 -7 1 -13 -2 -13 -7
0 -5 -9 -12 -20 -15 -22 -6 -25 6 -21 81 2 23 0 42 -4 42 -4 0 -20 -12 -35
-27 -29 -27 -32 -47 -6 -37 8 3 17 0 21 -7 6 -8 -1 -10 -24 -7 -28 4 -34 0
-62 -44 -17 -26 -33 -48 -35 -48 -11 0 0 24 40 82 l44 64 -28 42 c-31 46 -41
36 -29 -28 6 -34 6 -34 8 -5 1 22 4 26 13 17 9 -9 8 -20 -5 -47 -9 -19 -21
-35 -27 -35 -5 0 -10 -7 -10 -15 0 -8 -16 -33 -36 -55 -26 -29 -44 -40 -65
-40 -15 0 -31 -4 -34 -10 -3 -5 -13 -10 -22 -10 -13 0 -13 3 -2 18 13 16 12
16 -6 1 -17 -14 -40 -16 -91 -10 -6 0 -11 13 -11 29 0 15 -5 61 -11 102 -6 41
-9 84 -7 95 2 11 4 23 4 28 1 4 6 7 12 7 6 0 8 -8 5 -17 -6 -17 -5 -17 8 0 7
9 16 17 18 17 3 0 22 -39 42 -86 29 -66 35 -89 26 -99 -15 -18 -39 -8 -50 19
-8 20 -9 20 -9 -4 -1 -48 10 -53 75 -39 74 16 121 47 116 74 -3 18 -9 38 -37
120 -4 13 4 7 23 -15 45 -52 49 -31 6 36 -35 54 -36 58 -18 71 10 7 22 13 27
13 4 0 5 5 2 11 -5 7 -15 5 -32 -6 -14 -9 -26 -15 -27 -13 -2 2 -19 31 -40 66
-21 34 -40 61 -44 61 -4 -1 -31 -11 -59 -23z m55 -29 c3 -16 -54 -49 -70 -40
-17 9 -8 43 11 43 11 0 23 5 26 11 9 14 29 6 33 -14z m-401 -10 c8 -7 9 -17 4
-26 -7 -11 -15 -11 -42 -2 -18 6 -34 9 -36 7 -3 -2 12 -9 31 -16 20 -6 36 -16
36 -22 0 -6 -7 -7 -17 -2 -10 4 -28 8 -40 8 -25 1 -28 12 -13 51 9 23 14 26
38 20 15 -3 32 -12 39 -18z m482 -174 c20 -50 20 -53 2 -53 -29 0 -57 79 -28
81 6 0 1 5 -12 10 -15 6 -21 14 -17 25 3 8 2 13 -3 10 -5 -3 -14 8 -20 26 -9
24 -8 34 1 40 13 8 34 -30 77 -139z m-99 106 c0 -5 11 -35 25 -65 27 -60 30
-68 16 -60 -5 4 -11 0 -14 -6 -3 -7 -10 -1 -16 15 -6 16 -8 33 -5 39 4 6 2 8
-3 5 -6 -4 -18 10 -27 33 -20 51 -20 50 4 50 11 0 20 -5 20 -11z m80 -195 c19
-46 21 -57 9 -64 -10 -7 -20 6 -40 48 -15 31 -25 60 -22 65 12 20 33 1 53 -49z
m55 6 c14 -44 -18 -54 -34 -10 -9 26 -8 30 9 30 10 0 21 -9 25 -20z m185 -52
c0 -4 -13 -8 -30 -8 -23 0 -33 -7 -45 -31 -19 -36 -31 -33 -14 4 6 14 21 29
33 35 24 11 56 11 56 0z"/>
<path d="M1435 458 c-2 -7 -8 -40 -13 -73 -6 -33 -13 -68 -17 -77 -8 -19 9
-25 20 -8 17 28 25 0 27 -97 1 -70 3 -86 5 -46 3 48 8 63 21 66 16 4 16 5 0 6
-15 1 -17 11 -14 76 4 79 7 91 25 80 7 -4 10 -54 7 -146 -2 -77 1 -142 5 -145
10 -6 10 -9 11 164 1 115 2 122 21 122 19 0 19 -5 14 -135 -3 -78 -1 -135 4
-135 5 0 9 50 9 110 0 95 2 110 16 110 14 0 15 8 9 57 -4 31 -9 62 -12 70 -7
18 -132 19 -138 1z m104 -17 c15 -10 8 -41 -8 -41 -6 0 -8 7 -5 15 4 8 1 15
-5 15 -6 0 -11 -7 -11 -15 0 -9 -9 -15 -25 -15 -18 0 -25 5 -25 19 0 28 48 41
79 22z"/>
<path d="M2260 300 c0 -5 -6 -10 -14 -10 -8 0 -17 -7 -20 -16 -8 -21 -8 -24 4
-24 6 0 10 7 10 16 0 9 6 14 13 11 8 -3 14 3 14 14 1 10 0 19 -3 19 -2 0 -4
-4 -4 -10z"/>
<path d="M1126 134 c-3 -9 -6 -24 -6 -35 0 -10 -4 -19 -10 -19 -5 0 -10 -4
-10 -10 0 -22 28 -8 34 18 4 15 9 35 12 45 7 21 -12 23 -20 1z"/>
</g>
</svg>
